<svg xmlns="http://www.w3.org/2000/svg" width="32" height="28" viewBox="0 0 32 28">
  <path fill="#53777A" d="M33,11.414 C33,5.135 31.163,0.041 28.891,0.001 C28.9,0.001 28.909,0 28.918,0 L26.326,0 C26.326,0 20.238,4.573 11.475,6.367 C11.207,7.782 11.037,9.469 11.037,11.414 C11.037,13.359 11.208,15.045 11.475,16.461 C20.238,18.255 26.326,22.828 26.326,22.828 L28.918,22.828 C28.909,22.828 28.9,22.827 28.891,22.827 C31.163,22.787 33,17.693 33,11.414 Z M28.026,21.102 C27.733,21.102 27.416,20.798 27.253,20.616 C26.858,20.177 26.478,19.492 26.153,18.637 C25.426,16.724 25.026,14.159 25.026,11.414 C25.026,8.669 25.426,6.105 26.153,4.191 C26.478,3.336 26.858,2.651 27.253,2.212 C27.416,2.03 27.733,1.726 28.026,1.726 C28.319,1.726 28.636,2.03 28.799,2.212 C29.194,2.651 29.574,3.336 29.899,4.191 C30.626,6.104 31.026,8.67 31.026,11.414 C31.026,14.158 30.626,16.723 29.899,18.637 C29.574,19.492 29.194,20.177 28.799,20.616 C28.636,20.797 28.319,21.102 28.026,21.102 Z M8.869,11.414 C8.869,9.791 8.988,8.213 9.214,6.755 C7.734,6.96 6.435,7.078 4.828,7.078 C2.732,7.078 2.732,7.078 2.732,7.078 L0.999,10.037 L0.999,12.792 L2.732,15.751 C2.732,15.751 2.732,15.751 4.828,15.751 C6.434,15.751 7.733,15.869 9.214,16.074 C8.988,14.616 8.869,13.038 8.869,11.415 L8.869,11.414 Z M12.505,18.068 L8.505,17.302 L11.063,27.35 C11.195,27.87 11.711,28.132 12.209,27.933 L15.914,26.45 C16.412,26.251 16.612,25.701 16.358,25.229 L12.505,18.068 L12.505,18.068 Z M28.026,15.148 C27.913,15.148 27.791,15.031 27.728,14.961 C27.576,14.792 27.429,14.528 27.304,14.198 C27.024,13.46 26.87,12.472 26.87,11.414 C26.87,10.356 27.024,9.368 27.304,8.63 C27.429,8.3 27.576,8.037 27.728,7.867 C27.791,7.797 27.913,7.68 28.026,7.68 C28.139,7.68 28.261,7.797 28.324,7.867 C28.476,8.036 28.623,8.3 28.748,8.63 C29.028,9.367 29.182,10.356 29.182,11.414 C29.182,12.472 29.028,13.46 28.748,14.198 C28.623,14.528 28.476,14.791 28.324,14.961 C28.261,15.031 28.139,15.148 28.026,15.148 Z" transform="translate(-1)"/>
</svg>
