<svg xmlns="http://www.w3.org/2000/svg" width="28" height="32" viewBox="0 0 28 32">
  <g fill="#53777A">
    <path d="M27,4 L18,4 C18,1.791 16.209,0 14,0 C11.791,0 10,1.791 10,4 L1,4 C0.448,4 0,4.448 0,5 L0,31 C0,31.552 0.448,32 1,32 L27,32 C27.552,32 28,31.552 28,31 L28,5 C28,4.448 27.552,4 27,4 Z M14,2 C15.105,2 16,2.895 16,4 C16,5.105 15.105,6 14,6 C12.895,6 12,5.105 12,4 C12,2.895 12.895,2 14,2 Z M26,30 L2,30 L2,6 L6,6 L6,9 C6,9.552 6.448,10 7,10 L21,10 C21.552,10 22,9.552 22,9 L22,6 L26,6 L26,30 Z"/>
    <polygon points="12 26.828 5.586 19.414 7.414 17.586 12 21.172 20.586 13.586 22.415 15.414"/>
  </g>
</svg>
