<svg xmlns="http://www.w3.org/2000/svg" width="64" height="76" viewBox="0 0 64 76">
  <defs>
    <filter id="logo_menu-a" width="143.8%" height="138.9%" x="-21.9%" y="-13.9%" filterUnits="objectBoundingBox">
      <feOffset dy="2" in="SourceAlpha" result="shadowOffsetOuter1"/>
      <feGaussianBlur in="shadowOffsetOuter1" result="shadowBlurOuter1" stdDeviation="2"/>
      <feColorMatrix in="shadowBlurOuter1" result="shadowMatrixOuter1" values="0 0 0 0 0   0 0 0 0 0   0 0 0 0 0  0 0 0 0.5 0"/>
      <feMerge>
        <feMergeNode in="shadowMatrixOuter1"/>
        <feMergeNode in="SourceGraphic"/>
      </feMerge>
    </filter>
    <filter id="logo_menu-b" width="123.7%" height="130.2%" x="-11.9%" y="-11.3%" filterUnits="objectBoundingBox">
      <feOffset dy="2" in="SourceAlpha" result="shadowOffsetOuter1"/>
      <feGaussianBlur in="shadowOffsetOuter1" result="shadowBlurOuter1" stdDeviation="2"/>
      <feColorMatrix in="shadowBlurOuter1" result="shadowMatrixOuter1" values="0 0 0 0 0   0 0 0 0 0   0 0 0 0 0  0 0 0 0.5 0"/>
      <feMerge>
        <feMergeNode in="shadowMatrixOuter1"/>
        <feMergeNode in="SourceGraphic"/>
      </feMerge>
    </filter>
  </defs>
  <g fill="none" fill-rule="evenodd" transform="translate(-2 -6)">
    <g filter="url(#logo_menu-a)" transform="translate(26 42)">
      <path fill="#6F6F6C" d="M18.6264327,6.32832487 L13.3660819,6.32832487 L13.3660819,2.81092386 C13.3660819,2.07319797 13.9785731,1.47526904 14.7340351,1.47526904 L17.2584795,1.47526904 C18.0139415,1.47526904 18.6264327,2.07319797 18.6264327,2.81092386 L18.6264327,6.32832487"/>
      <path fill="#FFFFFE" d="M28.898807,18.6342944 C28.898807,25.5928934 23.122152,31.2337462 15.9962573,31.2337462 C8.87036257,31.2337462 3.09389474,25.5928934 3.09389474,18.6342944 C3.09389474,11.6756954 8.87036257,6.0346599 15.9962573,6.0346599 C23.122152,6.0346599 28.898807,11.6756954 28.898807,18.6342944"/>
      <path fill="#CDCCC7" d="M15.9962573,31.6982741 C8.60781287,31.6982741 2.61819883,25.8492792 2.61819883,18.6342944 C2.61819883,14.6881827 4.41244444,11.1534213 7.24472515,8.75805076 C6.52538012,9.56923858 5.90596491,10.4677766 5.40612865,11.4348426 C3.94835088,13.4756954 3.09389474,15.9573198 3.09389474,18.6342944 C3.09389474,25.5928934 8.87036257,31.2337462 15.9962573,31.2337462 C18.7375906,31.2337462 21.2788772,30.3993503 23.3687953,28.975797 C24.3591111,28.4876954 25.2792515,27.8830051 26.1099415,27.1803655 C23.6569825,29.9461523 20.0372398,31.6982741 15.9962573,31.6982741"/>
      <path fill="#DEDED9" d="M15.9962573,31.2337462 C8.87036257,31.2337462 3.09389474,25.5928934 3.09389474,18.6342944 C3.09389474,15.9573198 3.94835088,13.4756954 5.40612865,11.4348426 C4.49440936,13.1993909 3.98035088,15.192731 3.98035088,17.3041218 C3.98035088,24.5191066 9.96996491,30.3681015 17.3584094,30.3681015 C19.5205614,30.3681015 21.5618246,29.8661117 23.3687953,28.975797 C21.2788772,30.3993503 18.7375906,31.2337462 15.9962573,31.2337462"/>
      <path fill="#6F6F6C" d="M18.0607251,18.6342944 C18.0607251,19.7475533 17.1364678,20.6501117 15.9962573,20.6501117 C14.8562339,20.6501117 13.9319766,19.7475533 13.9319766,18.6342944 C13.9319766,17.5210355 14.8562339,16.6184772 15.9962573,16.6184772 C17.1364678,16.6184772 18.0607251,17.5210355 18.0607251,18.6342944"/>
      <path fill="#5A5A57" d="M15.6219883 7.51632487L15.6219883 9.47567513C15.6219883 9.67760406 15.7896608 9.84115736 15.9962573 9.84115736 16.2030409 9.84115736 16.3705263 9.67760406 16.3705263 9.47567513L16.3705263 7.51632487C16.3705263 7.31457868 16.2030409 7.15084264 15.9962573 7.15084264 15.7896608 7.15084264 15.6219883 7.31457868 15.6219883 7.51632487M9.97950877 9.18858883L10.9827368 10.8855228C11.0860351 11.0602234 11.3150877 11.1201624 11.4939883 11.0192893 11.673076 10.9182335 11.7344561 10.6947411 11.6309708 10.5200406L10.6277427 8.8231066C10.5244444 8.64840609 10.2955789 8.58846701 10.1164912 8.6893401 9.93759064 8.7902132 9.87621053 9.01388832 9.97950877 9.18858883M5.94919298 13.3918173L7.68692398 14.3714924C7.86582456 14.4723655 8.09487719 14.4126091 8.19817544 14.2377259 8.30147368 14.0630254 8.24009357 13.8393503 8.06119298 13.7384772L6.32346199 12.758802C6.1445614 12.6579289 5.91569591 12.7176853 5.81221053 12.8925685 5.70891228 13.0674518 5.7702924 13.2909442 5.94919298 13.3918173M4.61099415 18.9997766L6.61745029 18.9997766C6.82423392 18.9997766 6.9917193 18.8362234 6.9917193 18.6342944 6.9917193 18.4323655 6.82423392 18.2688122 6.61745029 18.2688122L4.61099415 18.2688122C4.40439766 18.2688122 4.23672515 18.4323655 4.23672515 18.6342944 4.23672515 18.8362234 4.40439766 18.9997766 4.61099415 18.9997766M6.32346199 24.5097868L8.06119298 23.5301117C8.24009357 23.4292386 8.30147368 23.2055635 8.19817544 23.0308629 8.09487719 22.8559797 7.86582456 22.7962234 7.68692398 22.8970964L5.94919298 23.8767716C5.7702924 23.9776447 5.70891228 24.2011371 5.81221053 24.3760203 5.91569591 24.5507208 6.1445614 24.6106599 6.32346199 24.5097868M10.6277427 28.4454822L11.6309708 26.7485482C11.7344561 26.5738477 11.673076 26.3501726 11.4939883 26.2492995 11.3150877 26.1484264 11.0860351 26.2083655 10.9827368 26.383066L9.97950877 28.08C9.87621053 28.2547005 9.93759064 28.4783756 10.1164912 28.5792487 10.2955789 28.6801218 10.5244444 28.6201827 10.6277427 28.4454822M16.3705263 29.752264L16.3705263 27.7929137C16.3705263 27.5909848 16.2030409 27.4274315 15.9962573 27.4274315 15.7896608 27.4274315 15.6219883 27.5909848 15.6219883 27.7929137L15.6219883 29.752264C15.6219883 29.9540102 15.7896608 30.1177462 15.9962573 30.1177462 16.2030409 30.1177462 16.3705263 29.9540102 16.3705263 29.752264M22.0130058 28.08L21.0097778 26.383066C20.9064795 26.2083655 20.677614 26.1484264 20.4985263 26.2492995 20.3194386 26.3501726 20.2582456 26.5738477 20.3615439 26.7485482L21.3647719 28.4454822C21.4680702 28.6201827 21.6969357 28.6801218 21.8760234 28.5792487 22.0551111 28.4783756 22.1163041 28.2547005 22.0130058 28.08M26.0433216 23.8767716L24.3055906 22.8970964C24.1266901 22.7962234 23.8978246 22.8559797 23.7943392 23.0308629 23.6910409 23.2055635 23.7524211 23.4292386 23.9313216 23.5301117L25.6690526 24.5097868C25.8481404 24.6106599 26.0770058 24.5507208 26.1803041 24.3760203 26.2836023 24.2011371 26.2224094 23.9776447 26.0433216 23.8767716M27.3815205 18.2688122L25.3750643 18.2688122C25.1682807 18.2688122 25.0007953 18.4323655 25.0007953 18.6342944 25.0007953 18.8362234 25.1682807 18.9997766 25.3750643 18.9997766L27.3815205 18.9997766C27.5883041 18.9997766 27.7557895 18.8362234 27.7557895 18.6342944 27.7557895 18.4323655 27.5883041 18.2688122 27.3815205 18.2688122M25.6690526 12.758802L23.9313216 13.7384772C23.7524211 13.8393503 23.6910409 14.0630254 23.7943392 14.2377259 23.8978246 14.4126091 24.1266901 14.4723655 24.3055906 14.3714924L26.0433216 13.3918173C26.2224094 13.2909442 26.2836023 13.0674518 26.1803041 12.8925685 26.0770058 12.7176853 25.8481404 12.6579289 25.6690526 12.758802M21.3647719 8.8231066L20.3615439 10.5200406C20.2582456 10.6947411 20.3194386 10.9182335 20.4985263 11.0192893 20.677614 11.1201624 20.9064795 11.0602234 21.0097778 10.8855228L22.0130058 9.18858883C22.1163041 9.01388832 22.0551111 8.7902132 21.8760234 8.6893401 21.6969357 8.58846701 21.4680702 8.64840609 21.3647719 8.8231066"/>
      <path fill="#6F6F6C" d="M16.8383626,18.6342944 L16.8383626,13.4113706 C16.8383626,12.9570761 16.4612865,12.5890355 15.9962573,12.5890355 C15.5312281,12.5890355 15.154152,12.9570761 15.154152,13.4113706 L15.154152,18.6342944 C15.154152,19.0884061 15.5312281,19.4566294 15.9962573,19.4566294 C16.4612865,19.4566294 16.8383626,19.0884061 16.8383626,18.6342944"/>
      <path fill="#6F6F6C" d="M22.5457778,21.0715127 L16.2376608,18.1392487 C15.9575205,18.0091371 15.6225497,18.1253604 15.4893099,18.3987411 C15.3560702,18.6721218 15.4750877,18.9992284 15.7550409,19.1293401 L22.0631579,22.0614213 C22.3431111,22.1917157 22.6780819,22.0754924 22.8115088,21.8021117 C22.9447485,21.528731 22.825731,21.2016244 22.5457778,21.0715127"/>
      <path fill="#5A5A57" d="M17.403883,18.6342944 C17.403883,19.393401 16.773614,20.0086904 15.9962573,20.0086904 C15.2189006,20.0086904 14.5888187,19.393401 14.5888187,18.6342944 C14.5888187,17.8751878 15.2189006,17.2598985 15.9962573,17.2598985 C16.773614,17.2598985 17.403883,17.8751878 17.403883,18.6342944"/>
      <path fill="#595959" d="M15.9962573,31.3784772 C8.7885848,31.3784772 2.94568421,25.6727513 2.94568421,18.6342944 C2.94568421,11.5958376 8.7885848,5.89011168 15.9962573,5.89011168 C23.2039298,5.89011168 29.0468304,11.5958376 29.0468304,18.6342944 C29.0468304,25.6727513 23.2039298,31.3784772 15.9962573,31.3784772 Z M15.9962573,3.16873096 C7.24959064,3.16873096 0.158877193,10.0929746 0.158877193,18.6342944 C0.158877193,27.1756142 7.24959064,34.0998579 15.9962573,34.0998579 C24.742924,34.0998579 31.8336374,27.1756142 31.8336374,18.6342944 C31.8336374,10.0929746 24.742924,3.16873096 15.9962573,3.16873096 L15.9962573,3.16873096 Z"/>
      <path fill="#5A5A57" d="M15.9962573,5.89011168 L15.9962573,5.52462944 C8.58180117,5.52481218 2.57178947,11.3939086 2.5714152,18.6342944 C2.57178947,25.8746802 8.58180117,31.7437766 15.9962573,31.7439594 C23.4107135,31.7437766 29.4209123,25.8746802 29.4210994,18.6342944 C29.4209123,11.3939086 23.4107135,5.52481218 15.9962573,5.52462944 L15.9962573,6.25559391 C19.4979181,6.25577665 22.6646082,7.64058883 24.9598129,9.88117766 C27.254269,12.1224975 28.6723743,15.2148426 28.6725614,18.6342944 C28.6723743,22.0537462 27.254269,25.1460914 24.9598129,27.3874112 C22.6646082,29.628 19.4979181,31.0128122 15.9962573,31.0129949 C12.4945965,31.0128122 9.32790643,29.628 7.03288889,27.3874112 C4.73824561,25.1460914 3.32014035,22.0537462 3.31995322,18.6342944 C3.32014035,15.2148426 4.73824561,12.1224975 7.03288889,9.88117766 C9.32790643,7.64058883 12.4945965,6.25577665 15.9962573,6.25559391 L15.9962573,5.89011168"/>
    </g>
    <g filter="url(#logo_menu-b)" transform="rotate(-15 59.085 7.213)">
      <path fill="#FFFFFE" d="M15.9728708,34.8368003 C15.9728708,34.8368003 -5.12605823,32.6653676 3.60655286,17.0662333 C3.60655286,17.0662333 7.33139746,10.8376218 13.3928209,13.8430028 C13.3928209,13.8430028 11.9114505,-1.49847848 28.5170931,0.776529021 C41.8175181,2.5987178 38.3033612,14.3655847 38.3033612,14.3655847 C38.3033612,14.3655847 47.5089268,4.72007509 56.4524441,13.9300998 C65.9189652,23.6785423 43.997174,31.5266869 42.0397892,31.9621718 C42.0397892,31.9621718 38.5702177,30.2198041 31.764175,32.0929243 C17.9927625,35.8826061 15.9728708,34.8368003 15.9728708,34.8368003"/>
      <path fill="#646666" d="M15.6810043,34.8175119 C15.9441627,34.903594 16.2245881,34.9138725 16.4995493,34.9267206 C16.7758219,34.9312174 17.052313,34.9301467 17.328367,34.9113029 C17.880475,34.8841078 18.4303973,34.8226511 18.978134,34.7494171 C19.252658,34.7172969 19.5254334,34.6738275 19.7984275,34.6292875 C20.0709844,34.5834627 20.3448527,34.5477022 20.6160981,34.493312 C21.1592448,34.3911698 21.70414,34.2999484 22.2442266,34.1823885 C22.7858433,34.0723233 23.3268042,33.9603309 23.8647052,33.8331349 C24.4034804,33.7106499 24.9429114,33.5905203 25.4784081,33.4536883 C26.0141234,33.3189976 26.5522429,33.1933005 27.085991,33.0513293 L28.6872354,32.6271285 C29.2209835,32.4866562 29.752546,32.330552 30.2852013,32.1830132 L31.8855714,31.7359001 C32.962029,31.4451052 34.0594694,31.2174801 35.1722096,31.0770077 C36.2842942,30.9335375 37.4134272,30.8840724 38.5414674,30.9538803 C39.1051596,30.9913539 39.669289,31.0547377 40.2281727,31.1639464 C40.5075053,31.2179083 40.785745,31.2819346 41.0622361,31.3603079 C41.3428801,31.4421073 41.6029785,31.5226219 41.8982667,31.6570985 L41.6775109,31.6299034 C42.1292952,31.5132 42.6195479,31.3378237 43.087725,31.1692998 C43.5602735,30.9967072 44.0301992,30.8144786 44.4968463,30.6245412 C45.4310148,30.2455229 46.3518506,29.8345984 47.2613207,29.402903 C49.0769823,28.5352294 50.8432471,27.5639146 52.4875498,26.4345684 C53.3082805,25.8690387 54.0977556,25.2630377 54.8279982,24.6017899 C55.5569294,23.9409703 56.2285953,23.2234051 56.7800476,22.4366743 C57.3286585,21.6510143 57.7564001,20.7914778 57.9428404,19.8884719 C58.1325592,18.986965 58.063054,18.0535521 57.7550887,17.182024 C57.4484349,16.3087829 56.926271,15.5006387 56.2974449,14.7736515 C56.141823,14.5907805 55.9831411,14.4224707 55.8036951,14.2355311 C55.6362704,14.0730029 55.4609772,13.8892754 55.2819683,13.7263189 C54.927229,13.3882003 54.5515071,13.0753496 54.169228,12.7721349 C53.7812661,12.4770574 53.3815014,12.1984682 52.9673111,11.9447186 C52.5507166,11.6952517 52.1214449,11.4693397 51.6794962,11.2734064 C50.7955988,10.8813259 49.8588075,10.6179403 48.9025634,10.5003803 C47.9458822,10.3823921 46.9714968,10.4149406 46.0163455,10.5798243 C45.0609757,10.7442797 44.1244029,11.0361452 43.2289213,11.4273693 C42.3323468,11.8168802 41.4742407,12.3008245 40.6631272,12.8526495 C40.2576797,13.1288832 39.8635978,13.4218195 39.4839416,13.7308158 C39.1086568,14.0366001 38.7283448,14.3708643 38.4085768,14.6954924 C38.2000609,14.9072716 37.8560316,14.9132673 37.6398658,14.7089829 C37.492331,14.5695812 37.4427156,14.3682946 37.492331,14.1871367 L37.4932053,14.184353 C37.5979004,13.8053346 37.6822684,13.3674293 37.7443423,12.9500808 C37.8064162,12.5271649 37.8490374,12.1006086 37.8700201,11.6736241 C37.9119856,10.8202975 37.8759215,9.96418716 37.7390966,9.12777719 C37.6018346,8.2917955 37.3646861,7.47551419 37.0123511,6.71298068 C36.6608904,5.9500189 36.1927133,5.24337453 35.6220269,4.62366884 C35.0526518,4.00267833 34.3833902,3.4679841 33.6481205,3.02836565 C32.9154736,2.58425037 32.1168185,2.23628155 31.2908422,1.95833477 C30.4657401,1.68509895 29.5980169,1.47867314 28.7416594,1.33477465 C27.856232,1.18959135 26.9764874,1.09365903 26.0908415,1.04419392 C24.3247952,0.944407173 22.5445419,1.0626095 20.8746665,1.54633969 C20.0436631,1.79216628 19.2397623,2.12279019 18.5055855,2.56540652 C17.7663814,2.99988574 17.0999613,3.54550084 16.515942,4.16670548 C15.9371685,4.79326348 15.4414515,5.49669583 15.0410311,6.25430424 C14.6397365,7.01148439 14.3282741,7.81748723 14.087847,8.64597422 C13.8485128,9.47510361 13.6863338,10.3290726 13.5890701,11.1907505 C13.4957407,12.0472891 13.4577095,12.9353055 13.512352,13.7721438 L13.5134449,13.7879897 C13.5278705,14.0100474 13.3558558,14.2016979 13.1291987,14.2158308 C13.0524806,14.2207559 12.9777296,14.2038392 12.9139071,14.171719 C12.2275971,13.8239643 11.4980102,13.5665745 10.7472219,13.4475156 C9.99730801,13.3248165 9.22794133,13.347943 8.48786305,13.5183942 C7.74734762,13.6879888 7.03874343,14.0012678 6.39024601,14.413477 C5.7408743,14.8259004 5.14854939,15.3336137 4.61895409,15.8989292 C4.35426573,16.1815869 4.10509584,16.4796623 3.87559725,16.7893011 C3.76500079,16.9415508 3.64260155,17.1079334 3.56369775,17.2529026 L3.28108664,17.7696095 C2.91520033,18.4636199 2.58078811,19.1728339 2.29992556,19.9011059 C1.74672469,21.3570074 1.40815964,22.8987769 1.47132639,24.4403323 C1.50695331,25.2088616 1.65405098,25.9709668 1.90890369,26.6990247 C2.16659781,27.4264401 2.54253835,28.1131699 3.00197265,28.7433682 C3.4684012,29.3690697 4.01154784,29.9440213 4.61807981,30.4510921 C5.22067752,30.9630881 5.87813631,31.4146981 6.56619492,31.8181278 C7.25272354,32.2243412 7.97422336,32.5748796 8.70993025,32.893512 C9.44782283,33.2080758 10.2036382,33.4843095 10.9701634,33.7294937 C11.7362516,33.9761768 12.514361,34.1892408 13.3001205,34.3723259 C14.086317,34.553698 14.8795079,34.7104446 15.6810043,34.8175119 Z M15.6810043,34.8175119 C14.8762293,34.7363549 14.0769185,34.6050903 13.2828534,34.448772 C12.489444,34.2909548 11.7012803,34.1023021 10.9227337,33.8791738 C10.1439685,33.6564738 9.37700613,33.392874 8.62359507,33.0941562 C7.87236971,32.7902991 7.13294713,32.453037 6.42434294,32.0568879 C5.71442732,31.6635225 5.03095869,31.2187649 4.39797974,30.7071972 C3.7612851,30.2005546 3.18294868,29.619179 2.67936321,28.9772033 C2.182772,28.3307308 1.76770742,27.6165917 1.47569779,26.8529875 C1.18631101,26.088955 1.00992496,25.2827381 0.951785315,24.4694546 C0.839003154,22.8364637 1.18762243,21.2150361 1.73317335,19.6983204 C2.01228734,18.9394271 2.34626242,18.2032322 2.71149302,17.4839539 L2.99366699,16.9490455 C3.10448202,16.7439045 3.21901274,16.5873721 3.33944485,16.4149937 C3.57987194,16.0798729 3.83909605,15.7599558 4.11602434,15.4545997 C4.67053663,14.8445301 5.29564705,14.2899214 5.99681986,13.8291036 C6.69689983,13.3689282 7.47785072,13.0066124 8.31060271,12.8023279 C9.14204329,12.5969728 10.0204764,12.557572 10.8678726,12.6830549 C11.717236,12.8046834 12.5325023,13.0807029 13.2874434,13.4490146 L12.6892171,13.8483757 C12.6135918,12.9115366 12.6424431,12.0164537 12.7257183,11.1046683 C12.8140206,10.1984505 12.9709539,9.29608703 13.2115996,8.41064023 C13.4509338,7.52519343 13.7811932,6.65859047 14.2089349,5.83417205 C14.6366765,5.00996776 15.1726103,4.23372963 15.8064636,3.53757786 C16.4451253,2.84677946 17.1808322,2.23542502 17.9941315,1.74869694 C18.8026222,1.25340348 19.6836782,0.883378796 20.5859355,0.609500571 C22.3989743,0.0698812373 24.2933211,-0.0641670575 26.145484,0.0257694981 C27.0720025,0.0681681601 27.998084,0.172665872 28.9027455,0.316992631 C29.8347283,0.470741314 30.7361113,0.683591162 31.6311558,0.976313237 C32.520736,1.27310387 33.3923935,1.64869606 34.205037,2.13799375 C35.0192106,2.62193807 35.7737145,3.21915963 36.4187148,3.91937995 C37.0656822,4.6178872 37.5989932,5.41875081 37.9959165,6.2750753 C38.3945883,7.13161393 38.6597138,8.03954487 38.8129314,8.95775428 C38.9650562,9.87660609 39.0092074,10.8065929 38.9591548,11.7278002 C38.9353307,12.188618 38.887901,12.6475085 38.8197071,13.1042578 C38.7484533,13.5657179 38.6664895,14.0034092 38.5327246,14.4822143 L37.6171345,13.9708607 C38.0059707,13.5783519 38.3880312,13.2483704 38.7956644,12.9164617 C39.2004562,12.5886215 39.6192365,12.2791969 40.0509124,11.986689 C40.9140456,11.4027438 41.8305099,10.8881782 42.797464,10.4710439 C43.7631066,10.0524106 44.7829546,9.73570548 45.8347138,9.55733131 C46.8853801,9.37852888 47.9694877,9.34426733 49.0341426,9.47831563 C50.0981417,9.61257806 51.1420324,9.9063708 52.1094236,10.3472741 C52.5935563,10.5663338 53.0608591,10.8170855 53.5111135,11.0916061 C53.958745,11.3704094 54.3871424,11.6742665 54.8008955,11.9943978 C55.207873,12.3218097 55.6058891,12.6592859 55.9785511,13.0201028 C56.1711114,13.198477 56.3424703,13.3807056 56.5343748,13.5714996 C56.7026738,13.7492313 56.8880212,13.9488048 57.0569759,14.1507338 C57.735636,14.9490278 58.3209666,15.8580294 58.6706788,16.8788093 C58.8426934,17.3882357 58.9561313,17.9222875 58.9891354,18.4634058 C59.022358,19.0043099 58.9788626,19.5492826 58.8658619,20.0758398 C58.6372376,21.1319519 58.1426135,22.0976992 57.5328029,22.9484562 C56.918621,23.800498 56.1927498,24.5521106 55.4187931,25.2362708 C54.6433065,25.9200028 53.8171116,26.5369247 52.9642512,27.1084501 C51.2559074,28.2493596 49.4443986,29.2142503 47.5883015,30.0722879 C46.6595973,30.5014138 45.7160302,30.8967063 44.7617533,31.2663028 C44.2841776,31.4504586 43.8037606,31.6273338 43.3187536,31.794573 C42.8276266,31.9603132 42.357701,32.1232697 41.8217671,32.2521787 C41.7485462,32.2697378 41.6751066,32.2603158 41.612377,32.2301228 L41.6010114,32.2249836 C41.3955555,32.1266958 41.1289,32.0333331 40.8801672,31.9577436 C40.6257517,31.8808692 40.3654347,31.8162006 40.1022763,31.7609538 C39.5766153,31.6485331 39.0387143,31.5785111 38.4984091,31.5331145 C37.4160501,31.4453193 36.321014,31.4802233 35.234065,31.5922157 C34.1462417,31.7033516 33.0649755,31.9003555 31.9992278,32.1609574 L30.3927377,32.5686697 C29.8561482,32.7035746 29.3224001,32.8464024 28.7829691,32.9748832 L27.1657691,33.3620386 C26.6269939,33.4915901 26.0845029,33.6048673 25.5439791,33.7271382 C25.004111,33.8511222 24.4603087,33.9586178 23.917162,34.068683 C23.3748897,34.183245 22.8293387,34.2826035 22.2835693,34.3800348 C21.7391112,34.4841042 21.1902817,34.5654754 20.6423265,34.6511293 C20.3691139,34.6967399 20.0924042,34.7237209 19.8176616,34.7609803 C19.5427005,34.796955 19.2675207,34.8318589 18.9910296,34.8551996 C18.4391401,34.9108746 17.8852836,34.9549863 17.3303341,34.9646224 C17.0529687,34.9744726 16.7751661,34.9667638 16.4982379,34.9532733 C16.2228396,34.9316457 15.9413213,34.9121594 15.6810043,34.8175119 L15.6810043,34.8175119 Z"/>
      <path fill="#FFFFFE" d="M20.8454259,34.2405498 C20.8454259,34.2405498 20.3561439,30.5662002 16.3785489,28.9587629"/>
      <path fill="#646666" d="M20.2971067,34.604811 C20.2971067,34.604811 20.2951182,34.5786123 20.2911413,34.5299262 C20.2889319,34.4897548 20.2811991,34.4214198 20.2686056,34.3284142 C20.2420931,34.1458963 20.1974636,33.8788874 20.110193,33.5629742 C20.0717498,33.4033802 20.0147478,33.2348349 19.9557573,33.0551552 C19.8936737,32.876567 19.8194385,32.6905559 19.7383543,32.4997417 C19.6482115,32.3135123 19.5658016,32.1128736 19.4526813,31.9253342 C19.3989934,31.8292722 19.3448635,31.7327735 19.2902918,31.6356198 L19.1049248,31.3566031 C18.9871648,31.1640423 18.8397991,30.9944055 18.7030384,30.8184372 C18.6365361,30.7282699 18.5629637,30.6459621 18.4858563,30.5684575 C18.4105164,30.4887697 18.3360603,30.4099551 18.2627088,30.3324505 C18.1915668,30.2521077 18.1137966,30.181371 18.0349217,30.1150009 C17.9571515,30.0468841 17.8811488,29.9802957 17.8071345,29.9152354 C17.6628619,29.7785653 17.5066587,29.6757352 17.366363,29.5737785 C17.2234161,29.4761881 17.1001327,29.3711748 16.9755236,29.304368 C16.852682,29.2331948 16.745748,29.1711911 16.6575937,29.1201035 C16.4799595,29.0174917 16.3785489,28.9587629 16.3785489,28.9587629 C16.3785489,28.9587629 16.4874714,29.0017725 16.6783619,29.0773122 C16.774249,29.1153004 16.8906834,29.1615848 17.0243509,29.214419 C17.1606697,29.26376 17.2983141,29.3493425 17.4584942,29.4272838 C17.6160231,29.5091549 17.7925526,29.5914626 17.9600237,29.7084837 C18.0464104,29.7639377 18.1347857,29.82092 18.2253703,29.8792122 C18.3175015,29.9359761 18.4094117,29.9975432 18.4951357,30.0691531 C18.5837319,30.1385798 18.6736537,30.209098 18.7649011,30.2802713 C18.8581369,30.3501346 18.9485006,30.4252377 19.0322362,30.508637 C19.2036841,30.6715059 19.3883883,30.830445 19.5441497,31.0151461 L19.7880653,31.2849932 C19.8620796,31.380182 19.9360938,31.4751525 20.0094453,31.5694679 C20.1623344,31.7552607 20.2842922,31.9565544 20.413541,32.146277 C20.5335104,32.3405844 20.6457469,32.5324902 20.7438434,32.7189379 C20.8390678,32.9066956 20.9300942,33.0848471 21.0005735,33.2557939 C21.1512533,33.5935394 21.2489079,33.8893669 21.3134218,34.1017951 C21.3443531,34.2068084 21.3682145,34.2941375 21.3832382,34.3615993 C21.3967155,34.4198915 21.4037855,34.4508934 21.4037855,34.4508934 L20.2971067,34.604811"/>
      <path fill="#FFFFFE" d="M39.829653,31.5085911 C39.829653,31.3144555 41.0957088,24.7089548 45.2271293,22.766323"/>
      <path fill="#646666" d="M39.0851735,31.4302686 C39.0851735,31.4302686 39.0867404,31.4198962 39.090098,31.4004214 C39.0936794,31.3779831 39.1044238,31.3096097 39.1165112,31.2556307 C39.1368806,31.1715928 39.1664276,31.0532624 39.2082857,30.9091067 C39.2904351,30.619102 39.4184718,30.2145771 39.5941865,29.7378685 C39.9442728,28.785298 40.4924579,27.5414527 41.2282212,26.3941346 C41.4084127,26.106035 41.605616,25.826826 41.8059532,25.5575661 C42.0069618,25.2885178 42.2196102,25.033864 42.4322585,24.7936046 C42.6493837,24.5563087 42.867628,24.3351007 43.0856485,24.1359076 C43.3043406,23.9371379 43.5225849,23.7620766 43.7282942,23.6062785 C43.8341707,23.5324013 43.9357943,23.4614878 44.0322695,23.3941728 C44.1298639,23.3283396 44.2279059,23.2730905 44.3167706,23.2176297 C44.4929329,23.1043797 44.6634993,23.0307142 44.7942221,22.9578955 C45.069098,22.8323679 45.2271293,22.766323 45.2271293,22.766323 C45.2271293,22.766323 45.0767086,22.8493025 44.8213068,23.0015021 C44.7002091,23.0876568 44.5426255,23.1765634 44.3832512,23.3063246 C44.3026686,23.3698293 44.213804,23.433334 44.1265063,23.5074228 C44.0407754,23.5827817 43.9503439,23.6619509 43.8558832,23.744507 C43.6745726,23.9170281 43.4843082,24.1081772 43.2969539,24.3217647 C43.1100471,24.5355638 42.9258265,24.7703195 42.7451873,25.0190462 C42.569025,25.2709482 42.3948772,25.5355511 42.2337121,25.8130666 C42.0729947,26.0907938 41.9167541,26.3761416 41.7775254,26.6695333 C41.2067325,27.8369613 40.8262039,29.0780547 40.6025874,30.0124204 C40.4902195,30.4800267 40.4156806,30.8724857 40.3724795,31.1434391 C40.3498716,31.2793391 40.3371127,31.3828518 40.3290544,31.4499551 C40.3270399,31.4882696 40.3261445,31.5085911 40.3261445,31.5085911 L39.0851735,31.4302686"/>
      <path fill="#FFFFFE" d="M26.8012618,33.5120275 C26.7632173,31.3878948 25.8706625,24.4054983 25.8706625,24.4054983"/>
      <path fill="#646666" d="M26.1449534,33.5120275 C26.1449534,33.5120275 26.1490185,33.3688931 26.1560791,33.1184609 C26.1595024,32.9933508 26.1637815,32.8413103 26.1687024,32.6670043 C26.1770467,32.4897297 26.1699862,32.3041851 26.1699862,32.0946788 C26.1682745,31.8858085 26.1667768,31.6593381 26.1648512,31.4201446 C26.1657071,31.1822234 26.1537256,30.9199163 26.1477348,30.6542165 C26.1340417,30.1202721 26.1175671,29.5496429 26.0931762,28.9785897 C26.0514548,27.836271 25.993259,26.6926801 25.9491841,25.8349339 C25.9021139,24.9773998 25.8706625,24.4054983 25.8706625,24.4054983 C25.8706625,24.4054983 26.0005334,24.9638285 26.195019,25.8012178 C26.3867231,26.6394553 26.641972,27.7576001 26.8813882,28.8810462 C27.0048405,29.441709 27.1203764,30.0051284 27.2273542,30.5344077 C27.2799872,30.8005316 27.3360436,31.0511759 27.3796905,31.3018202 C27.425049,31.550768 27.4678401,31.7859325 27.5074219,32.0032848 C27.545506,32.2197888 27.5876552,32.4239939 27.6092647,32.5944829 C27.6345115,32.7673045 27.6567628,32.9180727 27.6747351,33.0421225 C27.7111075,33.2902222 27.7318612,33.4320843 27.7318612,33.4320843 L26.1449534,33.5120275"/>
      <path fill="#C0C1BE" d="M19.4542893,34.604811 C19.4542893,34.604811 19.4525413,34.5790847 19.4492638,34.5306844 C19.4477343,34.492095 19.4407424,34.424727 19.429162,34.3322868 C19.4049087,34.1517667 19.3633941,33.8864371 19.2803648,33.5722712 C19.2436571,33.4135531 19.1890326,33.2456781 19.1326601,33.0664662 C19.0730102,32.8885624 19.0015613,32.7032459 18.923339,32.5126969 C18.8359398,32.3269444 18.7564065,32.1265846 18.6467205,31.9393059 C18.5944994,31.8433774 18.5418414,31.7467948 18.4889649,31.6495582 L18.3084855,31.3704934 C18.1939925,31.1779822 18.0502208,31.0079271 17.9167185,30.8313314 C17.8516061,30.7412894 17.7799387,30.6586601 17.7043384,30.5808271 C17.6307046,30.500814 17.5577262,30.421673 17.4860589,30.3440581 C17.416358,30.2631729 17.3401022,30.1920986 17.2627538,30.1253846 C17.186498,30.0569265 17.1117717,29.9897766 17.0392303,29.9243708 C16.8978621,29.7870185 16.744258,29.6832413 16.6063857,29.5803362 C16.46611,29.4817914 16.3446251,29.37627 16.2220476,29.308466 C16.1012182,29.2365196 15.9959022,29.17373 15.9089399,29.1220594 C15.7341415,29.0180642 15.6340694,28.9587629 15.6340694,28.9587629 C15.6340694,28.9587629 15.7424444,29.0010586 15.9316637,29.0749672 C16.0269289,29.1124666 16.1425144,29.1578146 16.2753612,29.2097032 C16.4106115,29.2581035 16.5476097,29.342477 16.7068948,29.4192198 C16.8635579,29.500105 17.0390118,29.5812082 17.2057259,29.6971946 C17.2915956,29.7519174 17.3800873,29.8083844 17.4701085,29.8659416 C17.5618777,29.9224086 17.6534284,29.983236 17.7390796,30.0545283 C17.8275713,30.1232044 17.9171555,30.1931887 18.0080507,30.264045 C18.1011309,30.3333751 18.1913705,30.4079378 18.2750553,30.4907851 C18.4463578,30.6529916 18.6307701,30.8112736 18.7867777,30.995064 L19.03084,31.2640999 C19.1053479,31.3591564 19.1794187,31.4539948 19.2528341,31.5479611 C19.4060012,31.7334956 19.5285786,31.9342915 19.6583664,32.1241864 C19.7789774,32.3184417 19.8919409,32.5102987 19.990702,32.6967053 C20.0866226,32.884638 20.1786103,33.0629779 20.2498407,33.2343411 C20.4019153,33.5729252 20.5013319,33.8696496 20.5668813,34.0833086 C20.5985635,34.188612 20.6228168,34.2771279 20.6381117,34.3455859 C20.6520956,34.4042332 20.659306,34.435628 20.659306,34.435628 L19.4542893,34.604811"/>
      <path fill="#FFFFFE" d="M33.9145234,31.6907216 C33.9145234,31.6907216 32.3982608,28.1059396 35.1766562,24.7697595"/>
      <path fill="#646666" d="M33.587534,31.8728522 C33.587534,31.8728522 33.5784858,31.8427124 33.5615206,31.7860926 C33.5413885,31.7208615 33.5192206,31.6338866 33.4947907,31.5286125 C33.4468356,31.3150504 33.3873442,31.013437 33.3540924,30.6506828 C33.3321506,30.4698439 33.3253646,30.273074 33.3172212,30.0661857 C33.312471,29.8590822 33.3176736,29.6405685 33.3285314,29.4162422 C33.3500207,29.1917006 33.359295,28.9607004 33.4040832,28.7281933 C33.4228581,28.6123703 33.4418592,28.4956862 33.4610864,28.3783562 L33.5454602,28.0311025 C33.5934152,27.7983801 33.6798248,27.5744843 33.7526622,27.353172 C33.7863665,27.24187 33.8300237,27.1346583 33.8791098,27.030676 C33.9252552,26.9262631 33.9709482,26.8231419 34.0159627,26.7217429 C34.0573578,26.6194828 34.1091584,26.5232507 34.1634471,26.4308937 C34.2157,26.3381061 34.2670481,26.2472561 34.3168128,26.1589895 C34.4088775,25.9794424 34.5262769,25.825514 34.6267111,25.6808429 C34.7318955,25.53854 34.8128762,25.3998968 34.910596,25.2935463 C35.0040179,25.185043 35.0856772,25.0905332 35.1528595,25.0128155 C35.2865456,24.858026 35.362776,24.7697595 35.362776,24.7697595 C35.362776,24.7697595 35.3010226,24.8679291 35.1928975,25.0399413 C35.1390611,25.1254092 35.0739146,25.2291763 34.9990414,25.3482286 C34.9205489,25.4644821 34.8621885,25.6130284 34.782565,25.7643733 C34.7072394,25.9183016 34.6183416,26.0804107 34.5570405,26.2659859 C34.5228839,26.3568359 34.4878224,26.4502693 34.4518561,26.5456403 C34.4143064,26.6399348 34.3796973,26.7374587 34.355946,26.8403646 C34.3285754,26.9417635 34.3009786,27.0446695 34.2729294,27.1488671 C34.242392,27.2519883 34.2175096,27.3579082 34.202354,27.4668421 C34.1675188,27.6829877 34.1197899,27.8987026 34.109837,28.1204455 L34.0824664,28.4485389 C34.082014,28.5579034 34.0815616,28.6670526 34.0811092,28.7751253 C34.0729659,28.9901944 34.0989792,29.2024648 34.1107418,29.405478 C34.1329097,29.6087064 34.158923,29.8043999 34.1921749,29.9876069 C34.2288198,30.1708139 34.2616193,30.3432567 34.3064075,30.4991226 C34.3853524,30.8132225 34.478548,31.0651052 34.5455042,31.2351799 C34.5805656,31.3215089 34.60771,31.384372 34.6255801,31.4201092 C34.646617,31.4640272 34.6577009,31.4874932 34.6577009,31.4874932 L33.587534,31.8728522"/>
      <path fill="#C0C1BE" d="M34.1296194 31.3264605C34.1296194 31.3264605 34.1209808 31.2959742 34.104368 31.2386514 34.0846543 31.1720968 34.0631685 31.0842876 34.0396891 30.9784444 33.9936165 30.763108 33.9371333 30.4599626 33.9067873 30.0956299 33.8866306 29.9142149 33.881093 29.7166981 33.8746694 29.5090907 33.8713469 29.3014833 33.877992 29.0824972 33.8901746 28.8577144 33.9129894 28.6325022 33.9238431 28.401064 33.9694727 28.1685523 33.9887435 28.0528332 34.0082357 27.9358259 34.0279495 27.818604L34.1134496 27.4712319C34.1624018 27.2385055 34.2490095 27.0147962 34.321884 26.7940926 34.3562169 26.682882 34.3996315 26.5757506 34.4485837 26.4720542 34.4948778 26.3679285 34.5405074 26.2650909 34.585251 26.1639709 34.6266721 26.061992 34.6782823 25.9662393 34.732329 25.8741363 34.7843822 25.7818187 34.8351064 25.6914332 34.8847231 25.6034094 34.9764253 25.4245708 35.0927144 25.2717099 35.1926123 25.1276514 35.2967187 24.9863839 35.3771243 24.8485515 35.4736996 24.7429229 35.5662878 24.6353621 35.6469149 24.5415416 35.7135873 24.4642524 35.8456031 24.3109621 35.9211356 24.2233677 35.9211356 24.2233677 35.9211356 24.2233677 35.8613298 24.3219114 35.7565589 24.4943093 35.7047272 24.5797568 35.6415989 24.6838826 35.5691674 24.8030367 35.4931918 24.9193999 35.4371516 25.067967 35.3605115 25.2195397 35.2880801 25.373474 35.2023584 25.5355667 35.1438816 25.7210608 35.1113207 25.8116609 35.0776522 25.9048373 35.0433193 26.0001607 35.0072143 26.0944106 34.9742103 26.1916662 34.9518385 26.2942891 34.9259227 26.3954091 34.8997853 26.498032 34.8734264 26.601943 34.8441881 26.7047806 34.8207087 26.8101945 34.8069755 26.9186141 34.7746361 27.1341651 34.729671 27.3488573 34.7221399 27.5693463L34.6979961 27.8956785C34.6984391 28.0043127 34.6988821 28.1125176 34.6993251 28.2200785 34.6933445 28.4336972 34.7203679 28.6443103 34.7336581 28.8459063 34.7571374 29.0472877 34.7841607 29.2413694 34.8180507 29.4227844 34.8552632 29.604414 34.8887102 29.7750943 34.9336753 29.9292434 35.0131948 30.2401177 35.1060046 30.4887314 35.172677 30.6561913 35.207453 30.7412094 35.2344763 30.8028261 35.2517536 30.8367475 35.2725749 30.8801153 35.28365 30.9030874 35.28365 30.9030874L34.1296194 31.3264605M38.340694 31.0657977C38.340694 31.0657977 38.3424842 31.0556372 38.3456171 31.0359512 38.3491975 31.0137251 38.3599387 30.9451417 38.3720225 30.891164 38.3923861 30.8071281 38.4221482 30.6888006 38.4639941 30.5446484 38.5463433 30.254439 38.6741189 29.8501355 38.8500062 29.3732268 39.2002143 28.4208911 39.7482395 27.1768643 40.4840121 26.0295739 40.6643749 25.7414812 40.861297 25.4624907 41.0617995 25.1932373 41.2627496 24.9239839 41.4755597 24.6693363 41.6879223 24.4290826 41.9049842 24.1920042 42.1233887 23.9705899 42.3415695 23.7716133 42.559974 23.5726367 42.7783785 23.3975797 42.9838041 23.2417853 43.0898735 23.1681216 43.1914674 23.0972098 43.2881382 23.0298964 43.3854804 22.9640648 43.4837177 22.9090287 43.5725564 22.8533576 43.7486674 22.7401103 43.9189603 22.6666583 44.049645 22.5936297 44.3244408 22.4683168 44.4826498 22.4020619 44.4826498 22.4020619 44.4826498 22.4020619 44.332273 22.485251 44.0769455 22.6374469 43.9558832 22.7235995 43.7983455 22.8125039 43.6390176 22.9422621 43.5584586 23.0059769 43.4698436 23.0692684 43.3825713 23.1435671 43.2966417 23.2189241 43.2062365 23.2980914 43.1120272 23.3806455 42.9305456 23.5531624 42.7403367 23.7443069 42.5530369 23.9578892 42.3661847 24.1714715 42.1822416 24.4064332 42.0018788 24.6551539 41.8257678 24.9070497 41.6516707 25.1716462 41.4905527 25.449155 41.3298821 25.7268755 41.1736871 26.0122164 41.034499 26.305601 40.4640962 27.4732124 40.0839022 28.7140641 39.8605747 29.6486189 39.7482395 30.1162138 39.6737224 30.5086633 39.6307576 30.7793984 39.6081563 30.9152952 39.5954011 31.0188053 39.5873452 31.085907 39.5853312 31.1240089 39.5844361 31.1443299 39.5844361 31.1443299L38.340694 31.0657977M25.6021899 33.5120275C25.6021899 33.5120275 25.6030523 33.3689485 25.6047769 33.1186665 25.6056393 32.9934194 25.6067172 32.8414245 25.6077951 32.6671399 25.6123223 32.4905202 25.6008964 32.3024372 25.595938 32.0916399 25.5896861 31.8814794 25.5827875 31.6539117 25.5754577 31.4131825 25.5707148 31.1733023 25.553037 30.9121939 25.54118 30.6462029 25.5157412 30.1120981 25.4866375 29.5419051 25.4495573 28.9714999 25.382511 27.8302648 25.2988648 26.6886052 25.2361302 25.8324667 25.1701619 24.9761158 25.126183 24.4054983 25.126183 24.4054983 25.126183 24.4054983 25.2443224 24.9659262 25.4219627 25.8069927 25.5963692 26.648696 25.8287675 27.7712501 26.0452127 28.8980499 26.1568846 29.4608129 26.2610112 30.0256988 26.3569455 30.5561948 26.4041582 30.8226103 26.4552513 31.0748029 26.4934095 31.324448 26.5335079 31.5723949 26.5716661 31.8067557 26.6068061 32.0230724 26.6402214 32.2391768 26.678164 32.4410582 26.696273 32.6125831 26.7180468 32.7858063 26.7368026 32.936952 26.7523245 33.0611378 26.783584 33.3099338 26.8012618 33.4521636 26.8012618 33.4521636L25.6021899 33.5120275M3.7407033 19.6891985C3.71246017 19.1748833-3.68414974 29.1856832 12.6628833 33.3298969 12.6628833 33.3298969 10.5071385 30.1354165 12.8422713 29.1856832 12.8422713 29.1856832 4.30953751 30.0490964 3.7407033 19.6891985M30.8958991 3.24757183C30.8958991 3.24757183 14.9582532-2.68117759 15.076363 13.4776632 15.076363 13.4776632 15.7845868 12.8961403 17.9096933 13.3611445 17.9096933 13.3611445 15.3121476.457332718 30.8958991 3.24757183M54.9053628 14.6435895C54.9053628 14.6435895 48.222167 6.58413461 39.2712934 15.4611561 39.2712934 15.4611561 39.8680623 17.0965045 40.2260356 18.0309278 40.2260356 18.0309278 44.999527 7.86891287 54.9053628 14.6435895"/>
      <path fill="#FFFFFE" d="M15.9517305,34.7062333 L14.8895899,48.0838629 C14.8895899,48.0838629 19.4799509,47.0100333 26.3954975,49.3000305 C32.7024604,51.3883645 42.503942,47.3888186 42.503942,47.3888186 C42.503942,47.3888186 43.1236147,43.045485 42.5924356,39.0495668 C42.061474,35.0536487 41.7074996,31.6659211 41.7074996,31.6659211 C41.7074996,31.6659211 36.1313156,30.4497535 28.7852596,32.6213136 C21.4389861,34.7930871 17.9873008,34.9670083 15.9517305,34.7062333"/>
      <path fill="#646666" d="M15.7261709,34.7699629 C16.8228686,34.8734089 17.9235161,34.8057957 19.0099008,34.6765416 C19.2817712,34.6454012 19.5532028,34.6097816 19.8235373,34.5664836 C20.09453,34.5285179 20.3644256,34.4813806 20.633663,34.4327504 C20.9035586,34.3877461 21.1719182,34.3339968 21.4402778,34.2793944 C21.7086374,34.2273515 21.9765582,34.171256 22.2436012,34.1113214 C22.7790039,33.9989172 23.3104569,33.8673169 23.8421293,33.7389159 C24.3720463,33.60177 24.9021827,33.4680368 25.4288083,33.31852 C25.9574087,33.1758286 26.4807429,33.0196998 27.0058324,32.8697565 C27.5307026,32.7178936 28.0560116,32.5530199 28.5811012,32.3956114 C29.1070685,32.2358567 29.6426906,32.0799412 30.1800681,31.9442884 C30.7172262,31.8052229 31.2594311,31.6832206 31.8042692,31.5718829 C32.8941647,31.3526201 33.998323,31.1960648 35.1079669,31.0928321 C36.2180498,30.9908792 37.3349348,30.9471546 38.4529171,30.9667773 C39.0122373,30.9770153 39.5715576,31.0041032 40.1306584,31.0535866 C40.6945866,31.1041365 41.2383275,31.1649243 41.8226625,31.2758355 C42.0251939,31.3142278 42.1708936,31.4756888 42.1939335,31.6648776 L42.1959084,31.6836472 L42.4295985,33.6358965 C42.4666817,33.9607382 42.5142974,34.287926 42.556208,34.6138341 L42.9452527,37.5497799 L43.0703262,38.528784 L43.191889,39.5146134 C43.2364327,39.8488398 43.2568395,40.1832796 43.2875593,40.5177193 C43.3084049,40.8519458 43.3312253,41.1863855 43.3419773,41.5206119 C43.3538263,41.8548384 43.3637006,42.1890648 43.36392,42.5226514 C43.3698445,42.8568779 43.3610674,43.1900379 43.3582149,43.5236244 C43.3421967,44.1901577 43.3116963,44.8558378 43.2645194,45.5206648 C43.2406018,45.8529716 43.2131734,46.1850652 43.1804788,46.5171587 C43.1486618,46.8509586 43.1126757,47.1777198 43.0648406,47.519838 L43.0641823,47.5236773 C43.0374121,47.7160654 42.9053169,47.8696347 42.7326276,47.9376744 C42.1590446,48.1618429 41.6012603,48.3559374 41.0303104,48.5453395 C40.4615548,48.7326087 39.8895078,48.9094266 39.3132916,49.0732338 C38.1615176,49.4019147 36.9954808,49.6866577 35.8147424,49.9142389 C35.2244828,50.0285627 34.6307125,50.1290226 34.0329925,50.2098597 C33.4363696,50.2979487 32.8333833,50.3508448 32.2301776,50.3975555 C31.6252165,50.431682 31.0191582,50.4604762 30.4098085,50.4466123 C29.8013365,50.4412801 29.1908897,50.4005415 28.5821983,50.3288759 C27.9724098,50.2595564 27.3727149,50.1407535 26.7548076,49.9846248 L26.3284603,49.8577168 L25.8935553,49.7239836 L25.0597315,49.4627026 C24.7832531,49.370561 24.4988753,49.3063605 24.218886,49.2253101 C23.9373607,49.1495919 23.6580298,49.0661952 23.3727742,49.0060473 L22.5205185,48.8096066 L21.6610217,48.6470791 C21.3753273,48.5871444 21.0852444,48.5557907 20.7973557,48.5092934 C20.5092477,48.4619428 20.2196036,48.4295227 19.9295207,48.3990221 L19.4948351,48.3506051 L19.0588331,48.3183982 L18.6226115,48.2864046 L18.1859512,48.2693414 C17.603591,48.2441731 17.0210115,48.2475857 16.4399679,48.2693414 C15.8641906,48.2951495 15.2695426,48.3463393 14.7290931,48.445946 L14.7084669,48.449572 C14.5357776,48.4813523 14.3692323,48.371081 14.336757,48.2034346 C14.3310519,48.1742138 14.3299548,48.1443531 14.3325879,48.116412 L14.6604123,44.7782 L15.0016218,41.4410545 L15.3548998,38.1049755 L15.7261709,34.7699629 Z M15.7261709,34.7699629 L15.5613809,38.1205457 L15.3788174,41.4696355 L15.1839659,44.8178721 L14.9759488,48.1650423 L14.5794437,47.8355082 C15.2002036,47.6998553 15.7884882,47.633522 16.3954242,47.5848917 C16.9979716,47.5437266 17.602055,47.5151456 18.2048219,47.5294361 L18.6570616,47.5360481 L19.1084236,47.5584436 L19.5597856,47.581479 L20.0098311,47.6205112 C20.3100077,47.6452529 20.6099648,47.6714877 20.9081665,47.7130794 C21.2061488,47.7538179 21.5069837,47.779626 21.8025523,47.8338019 L22.6932078,47.9805458 L23.5764028,48.1622695 C23.8724103,48.2175118 24.1622737,48.296216 24.4541121,48.3672418 C24.7446339,48.4433866 25.0402025,48.5033212 25.3258968,48.5950362 L26.1889045,48.8516249 L26.604061,48.9727739 L27.0295306,49.0932832 C27.5616418,49.2169917 28.1271061,49.3242769 28.69652,49.3799458 C29.2657144,49.4390273 29.8403946,49.4693146 30.4177079,49.4665418 C30.9943629,49.4718741 31.5734316,49.4360412 32.1514032,49.395516 C32.7291553,49.3426199 33.306688,49.2822587 33.8826848,49.1967291 C34.4591203,49.1161053 35.0333617,49.0160719 35.6054087,48.9028146 C36.7499416,48.6767265 37.8848197,48.3939031 39.0067516,48.0682083 C39.5678273,47.9058941 40.1251727,47.7309958 40.6785684,47.5458595 C41.2288921,47.3607232 41.7866764,47.1627895 42.3122048,46.9544045 L41.9802113,47.3722409 C42.0203665,47.0623296 42.059644,46.7351417 42.0916804,46.4141393 C42.1250333,46.0918571 42.1533395,45.7680819 42.1781347,45.4443067 C42.2275059,44.7969696 42.26042,44.1481395 42.2792907,43.4995226 C42.2834599,43.1755341 42.2939924,42.851119 42.2896038,42.5273438 C42.2911398,42.203142 42.283021,41.8797934 42.2733662,41.5564448 C42.2643697,41.2330962 42.2439629,40.9110273 42.2257505,40.5887451 C42.1974443,40.267956 42.1798902,39.9452472 42.1386378,39.626591 L41.6741102,35.7120677 L41.5593497,34.7317839 C41.5222665,34.4043827 41.479917,34.0795411 41.4470029,33.750007 L41.2411801,31.7787748 L41.6144259,32.1865866 C41.120495,32.0854868 40.5708296,32.012968 40.0402543,31.9587921 C39.5044128,31.9056828 38.9652799,31.8664373 38.4248304,31.8434019 C37.3439314,31.7988242 36.2579855,31.8154608 35.1755506,31.8894727 C34.6342233,31.9274384 34.093335,31.9754288 33.5546409,32.0428287 C33.0152886,32.1057494 32.4785693,32.1885062 31.9427278,32.2776617 C31.4073251,32.3689501 30.873239,32.470903 30.3431026,32.5899192 C29.8109913,32.705736 29.2876572,32.8396825 28.758179,32.9815208 C28.2267261,33.1220793 27.6996616,33.2688233 27.1646978,33.4044762 C26.6299534,33.5405556 26.0949896,33.6764217 25.5571732,33.796931 C25.0213317,33.9251186 24.4811017,34.0377361 23.9419687,34.1533396 C23.4008609,34.2604115 22.8604114,34.3704695 22.3157928,34.4615446 C22.0443612,34.5108148 21.7720519,34.5560324 21.498426,34.5939981 C21.2254584,34.6351632 20.9522714,34.6759017 20.6777678,34.7074687 C20.4039225,34.7426617 20.1298578,34.7763616 19.854696,34.80089 C19.5799729,34.8307507 19.3045917,34.852933 19.0287715,34.8706361 C18.4780089,34.910948 17.9246132,34.9235322 17.3725341,34.9100949 C16.8206743,34.8979373 16.2694729,34.8561323 15.7261709,34.7699629 L15.7261709,34.7699629 Z"/>
      <path fill="#C0C1BE" d="M16.6958127,35.5154639 L16.192429,46.9448467 C16.192429,46.9448467 18.8513051,45.456965 27.3596215,48.0824742 C20.6238166,44.3193375 16.5917394,44.7523713 16.6958127,35.5154639"/>
    </g>
    <path fill="#902323" d="M35.3462293,45.6817391 C35.3482498,45.6857971 35.3522909,45.6954347 35.3583526,45.7106522 C35.3644144,45.7258696 35.370476,45.7431158 35.3765377,45.7623913 C35.3825994,45.7816668 35.3881559,45.8009419 35.3932073,45.8202174 C35.3982588,45.8394928 35.4007845,45.8531884 35.4007845,45.8613043 C35.4007845,45.9302902 35.3866407,46.0129705 35.3583526,46.1093478 C35.3300646,46.2057251 35.2911692,46.3076806 35.2416652,46.4152174 C35.1921612,46.5227542 35.1340706,46.6323183 35.0673917,46.743913 C35.0007128,46.8555078 34.9299938,46.9615212 34.8552327,47.0619565 C34.7804715,47.1623918 34.7031858,47.2536952 34.6233732,47.3358696 C34.5435605,47.4180439 34.4652645,47.483478 34.3884828,47.5321739 C34.3601948,47.505797 34.3263507,47.474348 34.2869495,47.4378261 C34.2475484,47.4013042 34.2056221,47.3622466 34.1611695,47.3206522 C34.116717,47.2790578 34.072265,47.2369567 34.0278124,47.1943478 C33.9833599,47.1517389 33.9419387,47.1101451 33.9035479,47.0695652 C33.9621445,47.0228983 34.0283172,46.9615221 34.1020681,46.8854348 C34.175819,46.8093474 34.250579,46.7246381 34.3263505,46.6313043 C34.402122,46.5379705 34.4763769,46.4415947 34.5491175,46.3421739 C34.6218581,46.2427531 34.685,46.1468845 34.7385452,46.0545652 C34.7920904,45.9622459 34.8340166,45.8785511 34.8643252,45.8034783 C34.8946338,45.7284054 34.9057468,45.6685509 34.8976645,45.623913 C34.8916028,45.6015941 34.8820052,45.5858696 34.8688715,45.5767391 C34.8557377,45.5676086 34.8319964,45.5630435 34.7976466,45.5630435 C34.6743917,45.5630435 34.5319435,45.5873911 34.3702977,45.636087 C34.208652,45.6847829 34.0399367,45.7552894 33.8641469,45.8476087 C33.6883571,45.939928 33.5110546,46.0530428 33.3322339,46.1869565 C33.1534133,46.3208702 32.9857083,46.4720281 32.8291139,46.6404348 C32.6725196,46.8088414 32.5331022,46.9934773 32.4108576,47.1943478 C32.2886129,47.3952184 32.1951629,47.6092742 32.1305045,47.8365217 C32.2719446,47.8344927 32.4063106,47.8289131 32.5336067,47.8197826 C32.6609028,47.8106521 32.7821353,47.8010145 32.8973079,47.7908696 C33.0124805,47.7807246 33.1226001,47.7715942 33.2276698,47.7634783 C33.3327396,47.7553623 33.4347769,47.7513043 33.533785,47.7513043 C33.5863199,47.7513043 33.642895,47.7797099 33.7035122,47.8365217 C33.7641294,47.8933336 33.8207046,47.961304 33.8732394,48.0404348 C33.9257743,48.1195656 33.969216,48.2007242 34.0035657,48.283913 C34.0379154,48.3671019 34.05509,48.4340577 34.05509,48.4847826 C34.05509,48.6288413 34.0182151,48.7734051 33.9444643,48.9184783 C33.8707134,49.0635514 33.7717068,49.20355 33.6474416,49.3384783 C33.5231764,49.4734065 33.3792128,49.5992023 33.2155464,49.7158696 C33.0518801,49.8325368 32.8796289,49.9339851 32.6987877,50.0202174 C32.5179464,50.1064497 32.333572,50.17442 32.1456588,50.2241304 C31.9577455,50.2738408 31.7789276,50.2986957 31.6091995,50.2986957 C31.5869732,50.2804347 31.5576753,50.2525364 31.521305,50.215 C31.4849347,50.1774636 31.4460393,50.1358698 31.4046176,50.0902174 C31.3631958,50.044565 31.3207645,49.9963771 31.2773222,49.9456522 C31.2338799,49.8949273 31.193469,49.8462321 31.1560884,49.7995652 C31.1187078,49.7528983 31.085874,49.71029 31.057586,49.6717391 C31.029298,49.6331882 31.0101029,49.6037682 31,49.5834783 C31.1111315,49.5997102 31.2449924,49.6037682 31.4015867,49.5956522 C31.5581811,49.5875362 31.7233604,49.5652176 31.8971296,49.5286957 C32.0708988,49.4921737 32.2461808,49.4399279 32.4229809,49.3719565 C32.599781,49.3039852 32.7649603,49.2182614 32.9185238,49.1147826 C33.0720873,49.0113038 33.2074636,48.8880442 33.3246568,48.745 C33.44185,48.6019558 33.5267128,48.4360879 33.5792476,48.2473913 C33.4620544,48.2494203 33.355976,48.255 33.2610091,48.2641304 C33.1660422,48.2732609 33.0741075,48.2834057 32.9852024,48.2945652 C32.8962972,48.3057247 32.8053728,48.3153623 32.7124265,48.3234783 C32.6194801,48.3315942 32.5164325,48.3356522 32.4032804,48.3356522 C32.3669101,48.3356522 32.3275096,48.3351449 32.2850776,48.3341304 C32.2426455,48.3331159 32.2002142,48.3300725 32.1577821,48.325 C32.1153501,48.3199275 32.0749393,48.3113044 32.0365484,48.2991304 C31.9981575,48.2869565 31.9668391,48.2697103 31.9425923,48.2473913 C31.8880368,48.2007244 31.8355027,48.151522 31.7849884,48.0997826 C31.7344741,48.0480432 31.6890119,47.9952901 31.6486005,47.9415217 C31.608189,47.8877534 31.5758603,47.8334785 31.5516135,47.7786957 C31.5273666,47.7239128 31.5152434,47.6711597 31.5152434,47.6204348 C31.5152434,47.4662311 31.5536337,47.2942763 31.6304154,47.1045652 C31.7071972,46.9148541 31.8137807,46.7236242 31.9501694,46.5308696 C32.086558,46.338115 32.2476962,46.1509429 32.4335889,45.9693478 C32.6194815,45.7877527 32.8220409,45.6259427 33.041273,45.483913 C33.260505,45.3418833 33.491352,45.2282613 33.7338206,45.1430435 C33.9762893,45.0578257 34.2217852,45.0152174 34.4703156,45.0152174 C34.5572002,45.0152174 34.6365064,45.0284057 34.7082368,45.0547826 C34.7799671,45.0811596 34.8451296,45.115652 34.9037262,45.1582609 C34.9623228,45.2008698 35.0148568,45.2480432 35.06133,45.2997826 C35.1078032,45.351522 35.1492243,45.4017389 35.1855946,45.4504348 C35.2219649,45.4991307 35.2532833,45.5442752 35.2795507,45.5858696 C35.3058182,45.627464 35.3280441,45.6594202 35.3462293,45.6817391 Z M36.2009271,49.4830435 C36.2009271,49.4952175 36.2069887,49.5013043 36.2191121,49.5013043 C36.2413384,49.5013043 36.2751825,49.4881161 36.3206454,49.4617391 C36.3661083,49.4353622 36.4181372,49.4018843 36.4767338,49.3613043 C36.5353304,49.3207244 36.5969569,49.2750727 36.6616153,49.2243478 C36.7262736,49.1736229 36.7879001,49.1244205 36.8464967,49.0767391 C36.9050933,49.0290577 36.9581325,48.9849277 37.005616,48.9443478 C37.0530994,48.9037679 37.088964,48.8733334 37.1132109,48.8530435 C37.1313961,48.8713044 37.1531169,48.8946375 37.178374,48.9230435 C37.2036312,48.9514494 37.2273726,48.977826 37.2495989,49.0021739 C37.2051463,49.0468118 37.1490762,49.1005794 37.0813871,49.1634783 C37.0136979,49.2263771 36.9399481,49.2918113 36.8601355,49.3597826 C36.7803229,49.427754 36.6974807,49.4947098 36.6116063,49.5606522 C36.525732,49.6265945 36.4423847,49.6854345 36.3615618,49.7371739 C36.2807389,49.7889133 36.2049686,49.8310143 36.1342485,49.8634783 C36.0635285,49.8959422 36.0049328,49.9121739 35.9584596,49.9121739 C35.9241099,49.9121739 35.8857196,49.9015218 35.8432876,49.8802174 C35.8008556,49.8589129 35.7609499,49.8315219 35.7235693,49.7980435 C35.6861887,49.764565 35.6548703,49.7275364 35.6296131,49.6869565 C35.604356,49.6463766 35.5917276,49.6078263 35.5917276,49.5713043 C35.5917276,49.5388404 35.6038508,49.476957 35.6280977,49.3856522 C35.6523446,49.2943474 35.6816424,49.1878267 35.7159922,49.066087 C35.6250664,49.1898557 35.5361626,49.2989126 35.4492779,49.3932609 C35.3623933,49.4876092 35.2825819,49.5682605 35.2098413,49.6352174 C35.1371007,49.7021742 35.0734537,49.7564491 35.0188982,49.7980435 C34.9643427,49.8396379 34.9239319,49.8695651 34.8976645,49.8878261 C34.8814999,49.8979711 34.8623047,49.9055797 34.8400784,49.9106522 C34.8178522,49.9157247 34.7976467,49.9182609 34.7794616,49.9182609 C34.7410707,49.9182609 34.6986393,49.9065943 34.6521662,49.8832609 C34.605693,49.8599274 34.5627565,49.8310147 34.5233553,49.7965217 C34.4839542,49.7620288 34.4506152,49.7234785 34.4233375,49.6808696 C34.3960598,49.6382607 34.3824211,49.5976814 34.3824211,49.5591304 C34.3824211,49.5144925 34.39707,49.4404353 34.4263683,49.3369565 C34.4556666,49.2334777 34.4950672,49.1097109 34.5445712,48.9656522 C34.5940752,48.8215935 34.6521658,48.6602907 34.7188447,48.4817391 C34.7855236,48.3031875 34.8572528,48.1155082 34.9340346,47.9186957 C34.9380757,47.9085507 34.9416117,47.9039855 34.9446425,47.905 C34.9476734,47.9060145 34.9532299,47.9065217 34.9613122,47.9065217 C34.9997031,47.9126087 35.0522371,47.9283332 35.118916,47.9536957 C35.1855949,47.9790581 35.2507574,48.0069564 35.3144054,48.0373913 C35.3780534,48.0678262 35.4331132,48.096739 35.4795864,48.1241304 C35.5260595,48.1515219 35.5492958,48.1702898 35.5492958,48.1804348 C35.5432341,48.1946378 35.5275749,48.2281157 35.5023177,48.2808696 C35.4770606,48.3336235 35.4477627,48.3970286 35.4144232,48.471087 C35.3810838,48.5451453 35.3457243,48.6252894 35.3083437,48.7115217 C35.2709631,48.7977541 35.2366139,48.8804344 35.2052951,48.9595652 C35.1739762,49.038696 35.1482143,49.1102171 35.1280086,49.1741304 C35.1078028,49.2380438 35.0977001,49.2852172 35.0977001,49.3156522 C35.0977001,49.3237682 35.1017412,49.3278261 35.1098235,49.3278261 C35.1259881,49.3278261 35.1613476,49.3060147 35.215903,49.2623913 C35.2704585,49.2187679 35.3376415,49.1502903 35.4174541,49.0569565 C35.4972667,48.9636227 35.587686,48.8434065 35.6887146,48.6963043 C35.7897432,48.5492022 35.8948114,48.3721749 36.0039223,48.1652174 L36.0887859,47.9247826 C36.0948476,47.9085506 36.1079811,47.9004348 36.1281868,47.9004348 C36.1423308,47.9004348 36.1731441,47.9141303 36.2206276,47.9415217 C36.268111,47.9689132 36.3186246,48.0003621 36.3721697,48.0358696 C36.4257149,48.071377 36.4737028,48.1068839 36.5161348,48.1423913 C36.5585668,48.1778987 36.581803,48.2027536 36.5858442,48.2169565 C36.5858442,48.2230435 36.5848339,48.2336956 36.5828133,48.248913 C36.5807928,48.2641305 36.577762,48.2768115 36.5737208,48.2869565 C36.5535151,48.3417394 36.5302789,48.406159 36.5040114,48.4802174 C36.477744,48.5542757 36.4509718,48.6313764 36.4236941,48.7115217 C36.3964163,48.7916671 36.3696442,48.8723184 36.3433767,48.9534783 C36.3171093,49.0346381 36.2933679,49.110217 36.2721519,49.1802174 C36.2509359,49.2502177 36.2337613,49.3121012 36.2206276,49.3658696 C36.2074938,49.4196379 36.2009271,49.4586955 36.2009271,49.4830435 Z M39.6318417,47.0330435 C39.6924589,46.9944926 39.7566111,46.9452902 39.8243002,46.8854348 C39.8919894,46.8255794 39.9596776,46.7576091 40.0273667,46.6815217 C40.0950559,46.6054344 40.1602184,46.5232613 40.2228561,46.435 C40.2854939,46.3467387 40.3405536,46.2574642 40.3880371,46.1671739 C40.4355205,46.0768836 40.4734057,45.9865947 40.5016937,45.8963043 C40.5299817,45.806014 40.5441255,45.7192758 40.5441255,45.636087 C40.5441255,45.5731881 40.5390742,45.522464 40.5289713,45.483913 C40.5188684,45.4453621 40.5052298,45.4154349 40.4880549,45.3941304 C40.47088,45.372826 40.4511798,45.358116 40.4289535,45.35 C40.4067272,45.341884 40.3834909,45.3378261 40.3592441,45.3378261 C40.2622566,45.3378261 40.1521371,45.3789126 40.0288822,45.461087 C39.9056272,45.5432613 39.7758074,45.6548544 39.6394188,45.7958696 C39.5030302,45.9368848 39.3636128,46.1017382 39.2211624,46.2904348 C39.0787121,46.4791314 38.9408101,46.6815207 38.8074523,46.8976087 C38.6740945,47.1136967 38.5483158,47.3363757 38.4301123,47.5656522 C38.3119088,47.7949287 38.2088612,48.0211583 38.1209663,48.2443478 C38.0330714,48.4675373 37.9633627,48.6810859 37.9118381,48.885 C37.8603135,49.0889141 37.8345516,49.2720282 37.8345516,49.4343478 C37.8345516,49.4952177 37.8390978,49.5454346 37.8481904,49.585 C37.857283,49.6245654 37.8704165,49.6560144 37.8875914,49.6793478 C37.9047662,49.7026813 37.9264871,49.7184058 37.9527545,49.7265217 C37.9790219,49.7346377 38.0093301,49.7386957 38.0436798,49.7386957 C38.1022764,49.7386957 38.17148,49.7138408 38.2512926,49.6641304 C38.3311052,49.61442 38.4159679,49.5500004 38.5058834,49.4708696 C38.5957989,49.3917387 38.6867233,49.3034787 38.7786593,49.206087 C38.8705953,49.1086952 38.9569735,49.0128266 39.0377964,48.9184783 C39.1186193,48.82413 39.1913588,48.7368845 39.2560171,48.6567391 C39.3206754,48.5765938 39.3701787,48.5131886 39.4045284,48.4665217 C39.4045284,48.4685507 39.4292801,48.4898549 39.4787841,48.5304348 C39.5282881,48.5710147 39.5863787,48.6197099 39.6530576,48.6765217 C39.7197365,48.7333336 39.7864144,48.7906519 39.8530932,48.8484783 C39.9197721,48.9063046 39.9702857,48.9534781 40.0046354,48.99 C39.9561417,49.0447829 39.8945151,49.1147822 39.819754,49.2 C39.7449928,49.2852178 39.6606352,49.3749995 39.5666786,49.4693478 C39.4727219,49.5636961 39.3722,49.6585502 39.2651096,49.753913 C39.1580193,49.8492758 39.0478998,49.9349996 38.9347477,50.011087 C38.8215957,50.0871743 38.7074351,50.1490577 38.5922624,50.1967391 C38.4770898,50.2444205 38.3649497,50.2682609 38.2558388,50.2682609 C38.1770365,50.2682609 38.093184,50.2444205 38.0042788,50.1967391 C37.9153737,50.1490577 37.8274801,50.0871743 37.7405955,50.011087 C37.6537109,49.9349996 37.5728892,49.8507976 37.498128,49.7584783 C37.4233668,49.666159 37.36073,49.5743483 37.3102157,49.4830435 C37.2495986,49.3694197 37.2142391,49.264928 37.2041362,49.1695652 C37.1940333,49.0742024 37.188982,48.9981162 37.188982,48.9413043 C37.188982,48.7850717 37.211208,48.6085517 37.2556605,48.4117391 C37.3001131,48.2149266 37.3637602,48.0094938 37.4466037,47.7954348 C37.5294471,47.5813757 37.629464,47.3637692 37.7466572,47.1426087 C37.8638504,46.9214482 37.9936702,46.7073923 38.1361205,46.5004348 C38.2785709,46.2934772 38.4331423,46.0986966 38.5998395,45.916087 C38.7665368,45.7334773 38.9413136,45.5742036 39.1241754,45.4382609 C39.3070372,45.3023182 39.4959579,45.1952902 39.6909431,45.1171739 C39.8859284,45.0390576 40.0834363,45 40.283473,45 C40.340049,45 40.399655,45.01471 40.4622927,45.0441304 C40.5249305,45.0735509 40.586557,45.1121012 40.6471742,45.1597826 C40.7077914,45.207464 40.7663871,45.2627533 40.8229631,45.3256522 C40.8795391,45.388551 40.9290424,45.4529707 40.9714744,45.518913 C41.0139064,45.5848554 41.0477505,45.6507968 41.0730077,45.7167391 C41.0982648,45.7826815 41.1108932,45.8430432 41.1108932,45.8978261 C41.1108932,46.0195658 41.0866467,46.1539848 41.038153,46.301087 C40.9896592,46.4481891 40.9239916,46.5963036 40.8411482,46.7454348 C40.7583047,46.894566 40.6598033,47.0401442 40.5456409,47.1821739 C40.4314786,47.3242036 40.3097409,47.4510139 40.1804243,47.5626087 L39.6318417,47.0330435 Z M42.1959351,49.4952174 C42.2262437,49.4952174 42.2666545,49.4820291 42.3171688,49.4556522 C42.3676831,49.4292752 42.4237532,49.3957973 42.4853806,49.3552174 C42.5470081,49.3146375 42.61015,49.269493 42.6748083,49.2197826 C42.7394667,49.1700722 42.8015983,49.1213771 42.8612052,49.0736957 C42.9208121,49.0260143 42.9738513,48.9823915 43.0203245,48.9428261 C43.0667976,48.9032607 43.1021571,48.8733334 43.126404,48.8530435 C43.1445891,48.8713044 43.16631,48.8946375 43.1915671,48.9230435 C43.2168243,48.9514494 43.2405656,48.977826 43.2627919,49.0021739 C43.2183394,49.0468118 43.1627744,49.1000722 43.0960956,49.1619565 C43.0294167,49.2238409 42.9576874,49.2872461 42.8809057,49.3521739 C42.8041239,49.4171018 42.7243125,49.4810142 42.6414691,49.543913 C42.5586256,49.6068119 42.4778039,49.6636229 42.3990016,49.7143478 C42.3201993,49.7650727 42.2464495,49.805652 42.17775,49.836087 C42.1090506,49.8665219 42.0514651,49.8817391 42.004992,49.8817391 C41.9666011,49.8817391 41.921644,49.8721015 41.8701195,49.8528261 C41.8185949,49.8335506 41.7690916,49.809203 41.7216081,49.7797826 C41.6741247,49.7503622 41.6337138,49.7178987 41.6003744,49.6823913 C41.567035,49.6468839 41.5503655,49.6118842 41.5503655,49.5773913 C41.5523861,49.4901445 41.5685504,49.3886962 41.598859,49.2730435 C41.6291676,49.1573907 41.6650322,49.0386963 41.7064539,48.9169565 C41.7478756,48.7952168 41.7923276,48.6750006 41.839811,48.5563043 C41.8872945,48.4376081 41.9312413,48.3315947 41.9716527,48.2382609 C41.9554881,48.2423189 41.9241697,48.2646375 41.8776966,48.3052174 C41.8312234,48.3457973 41.7751534,48.4010866 41.7094848,48.471087 C41.6438162,48.5410873 41.5720869,48.6252894 41.4942949,48.7236957 C41.4165028,48.8221019 41.3397223,48.9321733 41.2639508,49.053913 C41.1881793,49.1756528 41.115945,49.3070283 41.0472455,49.4480435 C40.978546,49.5890587 40.9209606,49.7376804 40.8744874,49.893913 C40.8684257,49.916232 40.8598384,49.9324637 40.8487253,49.9426087 C40.8376121,49.9527537 40.8189221,49.9578261 40.7926547,49.9578261 C40.7744695,49.9578261 40.7461819,49.9486957 40.7077911,49.9304348 C40.6694002,49.9121738 40.6289893,49.8903624 40.5865573,49.865 C40.5441253,49.8396376 40.5027042,49.8127538 40.4622927,49.7843478 C40.4218813,49.7559419 40.3895526,49.7305798 40.3653058,49.7082609 C40.3531823,49.6940579 40.3430796,49.6808696 40.3349973,49.6686957 C40.326915,49.6565217 40.322874,49.638261 40.322874,49.613913 C40.322874,49.4799993 40.3450999,49.3156531 40.3895525,49.1208696 C40.4340051,48.926086 40.4951265,48.7145664 40.5729185,48.4863043 C40.6507106,48.2580423 40.7416349,48.0196389 40.8456944,47.771087 C40.9497539,47.522535 41.0608837,47.2785519 41.1790872,47.0391304 C41.2972907,46.7997089 41.4205437,46.5719576 41.5488501,46.3558696 C41.6771564,46.1397815 41.8034403,45.9490588 41.9277055,45.7836957 C42.0519707,45.6183325 42.1711826,45.4854353 42.285345,45.385 C42.3995073,45.2845647 42.5040704,45.2313044 42.5990373,45.2252174 C42.6455104,45.2394204 42.692488,45.261739 42.7399715,45.2921739 C42.7874549,45.3226088 42.832412,45.3560868 42.874844,45.3926087 C42.917276,45.4291306 42.9551612,45.4646375 42.9885006,45.4991304 C43.0218401,45.5336234 43.047602,45.5630434 43.0657871,45.5873913 C43.0779106,45.6036233 43.0859927,45.6228984 43.0900339,45.6452174 C43.094075,45.6675363 43.0960956,45.6837681 43.0960956,45.693913 C43.0960956,45.7669569 43.0758901,45.8572458 43.0354787,45.9647826 C42.9950672,46.0723194 42.9384921,46.1930428 42.8657515,46.3269565 C42.7930109,46.4608702 42.7046122,46.6044195 42.6005527,46.7576087 C42.4964932,46.9107979 42.3813223,47.0680427 42.2550365,47.2293478 C42.1287508,47.390653 41.9923642,47.5534774 41.8458727,47.7178261 C41.6993812,47.8821747 41.5463252,48.0414485 41.3866999,48.1956522 C41.3462885,48.3052179 41.3099187,48.4117386 41.2775896,48.5152174 C41.3867005,48.4015936 41.4867173,48.3062323 41.5776431,48.2291304 C41.6685688,48.1520286 41.7493905,48.0906524 41.8201105,48.045 C41.8908306,47.9993476 41.9509417,47.9668842 42.0004457,47.9476087 C42.0499497,47.9283332 42.0878349,47.9186957 42.1141023,47.9186957 C42.1322875,47.9186957 42.1646162,47.9303622 42.2110893,47.9536957 C42.2575625,47.9770291 42.3060555,48.0049274 42.3565698,48.0373913 C42.4070841,48.0698552 42.4535566,48.1033332 42.4959886,48.1378261 C42.5384206,48.172319 42.5646877,48.2007245 42.5747905,48.2230435 C42.5788317,48.2331885 42.5788317,48.246884 42.5747905,48.2641304 C42.5707494,48.2813769 42.5667083,48.2950724 42.5626671,48.3052174 C42.544482,48.3600003 42.5227612,48.4234054 42.497504,48.4954348 C42.4722469,48.5674641 42.4449695,48.6435503 42.4156712,48.7236957 C42.3863729,48.803841 42.3575802,48.8844923 42.3292922,48.9656522 C42.3010042,49.046812 42.2757474,49.1213765 42.2535211,49.1893478 C42.2312948,49.2573192 42.21311,49.3171737 42.1989659,49.368913 C42.1848219,49.4206524 42.17775,49.4566666 42.17775,49.4769565 C42.17775,49.4891305 42.1838117,49.4952174 42.1959351,49.4952174 Z M41.9292209,46.8778261 C41.8807272,46.9813049 41.8337496,47.0842748 41.7882867,47.1867391 C41.7428238,47.2892034 41.698877,47.3921734 41.656445,47.4956522 C41.7918233,47.3211585 41.9231586,47.1441313 42.0504546,46.9645652 C42.1777507,46.7849991 42.2914062,46.6125371 42.3914245,46.4471739 C42.4914428,46.2818108 42.5717594,46.1291311 42.6323765,45.9891304 C42.6929937,45.8491297 42.7233018,45.7314498 42.7233018,45.636087 C42.7233018,45.5914491 42.7152197,45.5691304 42.6990551,45.5691304 C42.6748082,45.5691304 42.6379333,45.6021011 42.5884293,45.6680435 C42.5389253,45.7339858 42.4798244,45.824782 42.411125,45.9404348 C42.3424255,46.0560875 42.2671603,46.1940572 42.1853272,46.3543478 C42.103494,46.5146385 42.0181261,46.6891295 41.9292209,46.8778261 Z M45.2176859,49.0021739 C45.0317932,49.1847835 44.8565112,49.3379704 44.6918346,49.4617391 C44.5271579,49.5855079 44.3700608,49.6849272 44.2205384,49.76 C44.0710161,49.8350728 43.9280627,49.8888404 43.7916741,49.9213043 C43.6552855,49.9537683 43.5224348,49.97 43.3931182,49.97 C43.3385628,49.97 43.2779465,49.9497103 43.2112676,49.9091304 C43.1445887,49.8685505 43.0824571,49.8193481 43.0248707,49.7615217 C42.9672844,49.7036954 42.9192966,49.6433336 42.8809057,49.5804348 C42.8425148,49.5175359 42.8233197,49.4637683 42.8233197,49.4191304 C42.8233197,49.2527528 42.8460508,49.1000732 42.8915136,48.961087 C42.9369765,48.8221008 42.9970876,48.6968122 43.0718488,48.5852174 C43.14661,48.4736226 43.2319779,48.3752178 43.3279551,48.29 C43.4239323,48.2047822 43.5239491,48.1337684 43.6280086,48.0769565 C43.732068,48.0201446 43.8356208,47.9775364 43.93867,47.9491304 C44.0417192,47.9207245 44.1366847,47.9065217 44.2235693,47.9065217 C44.286207,47.9065217 44.3483387,47.9247824 44.4099661,47.9613043 C44.4715936,47.9978263 44.5276636,48.0424635 44.5781779,48.0952174 C44.6286922,48.1479713 44.6696082,48.2032606 44.7009271,48.261087 C44.732246,48.3189133 44.7479052,48.3691302 44.7479052,48.4117391 C44.7479052,48.480725 44.7191124,48.5512315 44.6615261,48.6232609 C44.6039398,48.6952902 44.522613,48.7688402 44.4175432,48.843913 C44.3124735,48.9189859 44.1861896,48.9955793 44.0386878,49.0736957 C43.891186,49.151812 43.7285324,49.2304344 43.5507221,49.3095652 C43.5446603,49.3582611 43.5416295,49.4059418 43.5416295,49.4526087 C43.5416295,49.5155076 43.5552682,49.5581158 43.5825459,49.5804348 C43.6098236,49.6027537 43.6608423,49.613913 43.7356035,49.613913 C43.8689613,49.613913 43.99474,49.5915944 44.1129435,49.5469565 C44.231147,49.5023186 44.3448024,49.4444931 44.4539134,49.3734783 C44.5630243,49.3024634 44.6680924,49.2213048 44.7691211,49.13 C44.8701497,49.0386952 44.9701665,48.9463773 45.0691745,48.8530435 L45.2176859,49.0021739 Z M44.150829,48.2413043 C44.1104176,48.2413043 44.0659657,48.2631157 44.0174719,48.3067391 C43.9689782,48.3503625 43.9204852,48.4076808 43.8719914,48.4786957 C43.8234977,48.5497105 43.7770252,48.6313763 43.7325727,48.7236957 C43.6881201,48.816015 43.6497298,48.9118836 43.6174006,49.0113043 C43.6921618,48.9626085 43.7654064,48.9108698 43.8371367,48.856087 C43.9088671,48.8013041 43.9730193,48.7439858 44.0295953,48.6841304 C44.0861713,48.6242751 44.1316335,48.5628989 44.1659832,48.5 C44.200333,48.4371011 44.2175076,48.3742032 44.2175076,48.3113043 C44.2175076,48.2930434 44.2119511,48.2768117 44.2008379,48.2626087 C44.1897248,48.2484057 44.1730553,48.2413043 44.150829,48.2413043 Z M47.1180246,48.9717391 C46.9685023,49.1239138 46.8194873,49.2598545 46.6709752,49.3795652 C46.5224632,49.499276 46.3719328,49.6052894 46.2193796,49.6976087 C46.0668264,49.789928 45.9117498,49.8695649 45.7541451,49.9365217 C45.5965405,50.0034786 45.4348971,50.0602896 45.2692102,50.1069565 C45.1883873,50.346378 45.1045348,50.6010131 45.0176502,50.8708696 C44.9307656,51.140726 44.8398412,51.4298535 44.7448743,51.7382609 L43.9507934,52 C44.0498014,51.6895637 44.1467874,51.3892768 44.2417543,51.0991304 C44.3367212,50.8089841 44.432697,50.5269579 44.5296844,50.2530435 C44.4650261,50.2631885 44.3998636,50.2713043 44.334195,50.2773913 C44.2685264,50.2834783 44.2013434,50.2885507 44.132644,50.2926087 L44.0871813,49.9821739 C44.1902305,49.9720289 44.2877217,49.9613769 44.3796577,49.9502174 C44.4715937,49.9390579 44.5599924,49.9284058 44.6448565,49.9182609 C44.8812634,49.2507213 45.1151412,48.6465969 45.3464967,48.1058696 C45.5778522,47.5651422 45.81173,47.0969585 46.0481369,46.7013043 C46.2845439,46.3056502 46.5259986,45.9871027 46.7725085,45.7456522 C47.0190183,45.5042017 47.2766374,45.3500003 47.5453735,45.2830435 C47.5817438,45.2911595 47.6201341,45.3058695 47.6605456,45.3271739 C47.700957,45.3484784 47.7403576,45.3733332 47.7787484,45.4017391 C47.8171393,45.4301451 47.8535091,45.4600723 47.8878588,45.4915217 C47.9222085,45.5229712 47.9504961,45.5528984 47.9727224,45.5813043 C47.9828253,45.5914493 47.9898972,45.6021014 47.9939383,45.6132609 C47.9979795,45.6244203 48,45.6431883 48,45.6695652 C48,45.7953629 47.9732278,45.9338398 47.9196827,46.085 C47.8661375,46.2361602 47.7913774,46.3944195 47.6954002,46.5597826 C47.5994231,46.7251458 47.4852624,46.8950716 47.352915,47.0695652 C47.2205675,47.2440588 47.0745833,47.4170281 46.9149581,47.5884783 C46.7553329,47.7599284 46.5856074,47.927318 46.4057764,48.0906522 C46.2259455,48.2539863 46.0410659,48.4076804 45.8511321,48.5517391 C45.7824327,48.7201458 45.709188,48.9057961 45.631396,49.1086957 C45.5536039,49.3115952 45.4712669,49.5347814 45.3843822,49.7782609 C45.5278429,49.73971 45.6637243,49.693551 45.7920307,49.6397826 C45.920337,49.5860142 46.047126,49.5210873 46.1724015,49.445 C46.297677,49.3689127 46.4254763,49.2796382 46.5558032,49.1771739 C46.6861301,49.0747096 46.8260526,48.9544934 46.975575,48.8165217 L47.1180246,48.9717391 Z M46.433054,47.2704348 C46.4108277,47.3110147 46.3835504,47.3627533 46.3512213,47.4256522 C46.3229332,47.4784061 46.2895943,47.5453619 46.2512034,47.6265217 C46.2128125,47.7076816 46.1693709,47.8040574 46.1208772,47.9156522 C46.2623172,47.7837675 46.3981987,47.6452906 46.5285256,47.5002174 C46.6588525,47.3551442 46.7805902,47.2085515 46.8937422,47.0604348 C47.0068942,46.9123181 47.1099419,46.7667398 47.2028882,46.6236957 C47.2958345,46.4806515 47.3756459,46.3462325 47.4423248,46.2204348 C47.5090037,46.0946371 47.5605275,45.981015 47.5968978,45.8795652 C47.6332681,45.7781154 47.651453,45.6949279 47.651453,45.63 C47.651453,45.6015941 47.6413503,45.5873913 47.6211446,45.5873913 C47.5827537,45.5873913 47.5322402,45.6178258 47.4696024,45.6786957 C47.4069647,45.7395655 47.3276584,45.8369559 47.2316812,45.9708696 C47.135704,46.1047833 47.0220486,46.2782598 46.8907114,46.4913043 C46.7593742,46.7043489 46.6068232,46.9640564 46.433054,47.2704348 Z" transform="rotate(-16 39.5 48.5)"/>
  </g>
</svg>
