<svg xmlns="http://www.w3.org/2000/svg" width="307" height="381" viewBox="0 0 307 381">
  <defs>
    <filter id="logo-a" width="108.2%" height="107.1%" x="-4.1%" y="-2.5%" filterUnits="objectBoundingBox">
      <feOffset dy="2" in="SourceAlpha" result="shadowOffsetOuter1"/>
      <feGaussianBlur in="shadowOffsetOuter1" result="shadowBlurOuter1" stdDeviation="2"/>
      <feColorMatrix in="shadowBlurOuter1" result="shadowMatrixOuter1" values="0 0 0 0 0   0 0 0 0 0   0 0 0 0 0  0 0 0 0.5 0"/>
      <feMerge>
        <feMergeNode in="shadowMatrixOuter1"/>
        <feMergeNode in="SourceGraphic"/>
      </feMerge>
    </filter>
    <filter id="logo-b" width="104.7%" height="105.5%" x="-2.5%" y="-2.1%" filterUnits="objectBoundingBox">
      <feOffset dy="2" in="SourceAlpha" result="shadowOffsetOuter1"/>
      <feGaussianBlur in="shadowOffsetOuter1" result="shadowBlurOuter1" stdDeviation="2"/>
      <feColorMatrix in="shadowBlurOuter1" result="shadowMatrixOuter1" values="0 0 0 0 0   0 0 0 0 0   0 0 0 0 0  0 0 0 0.5 0"/>
      <feMerge>
        <feMergeNode in="shadowMatrixOuter1"/>
        <feMergeNode in="SourceGraphic"/>
      </feMerge>
    </filter>
  </defs>
  <g fill="none" fill-rule="evenodd" transform="translate(-32 -41)">
    <g filter="url(#logo-a)" transform="translate(142 229)">
      <path fill="#6F6F6C" d="M99.535,34.63 L71.425,34.63 L71.425,15.382 C71.425,11.345 74.698,8.073 78.735,8.073 L92.225,8.073 C96.262,8.073 99.535,11.345 99.535,15.382 L99.535,34.63"/>
      <path fill="#FFFFFE" d="M154.428,101.971 C154.428,140.05 123.559,170.918 85.48,170.918 C47.401,170.918 16.533,140.05 16.533,101.971 C16.533,63.892 47.401,33.023 85.48,33.023 C123.559,33.023 154.428,63.892 154.428,101.971"/>
      <path fill="#CDCCC7" d="M85.48,173.46 C45.998,173.46 13.991,141.453 13.991,101.971 C13.991,80.377 23.579,61.034 38.714,47.926 C34.87,52.365 31.56,57.282 28.889,62.574 C21.099,73.742 16.533,87.322 16.533,101.971 C16.533,140.05 47.401,170.918 85.48,170.918 C100.129,170.918 113.709,166.352 124.877,158.562 C130.169,155.891 135.086,152.582 139.525,148.737 C126.417,163.872 107.074,173.46 85.48,173.46"/>
      <path fill="#DEDED9" d="M85.48,170.918 C47.401,170.918 16.533,140.05 16.533,101.971 C16.533,87.322 21.099,73.742 28.889,62.574 C24.017,72.23 21.27,83.138 21.27,94.692 C21.27,134.174 53.277,166.181 92.759,166.181 C104.313,166.181 115.221,163.434 124.877,158.562 C113.709,166.352 100.129,170.918 85.48,170.918"/>
      <path fill="#6F6F6C" d="M96.512,101.971 C96.512,108.063 91.573,113.002 85.48,113.002 C79.388,113.002 74.449,108.063 74.449,101.971 C74.449,95.879 79.388,90.94 85.48,90.94 C91.573,90.94 96.512,95.879 96.512,101.971"/>
      <path fill="#5A5A57" d="M83.48 41.131L83.48 51.853C83.48 52.958 84.376 53.853 85.48 53.853 86.585 53.853 87.48 52.958 87.48 51.853L87.48 41.131C87.48 40.027 86.585 39.131 85.48 39.131 84.376 39.131 83.48 40.027 83.48 41.131M53.328 50.282L58.689 59.568C59.241 60.524 60.465 60.852 61.421 60.3 62.378 59.747 62.706 58.524 62.153 57.568L56.792 48.282C56.24 47.326 55.017 46.998 54.06 47.55 53.104 48.102 52.776 49.326 53.328 50.282M31.791 73.283L41.077 78.644C42.033 79.196 43.257 78.869 43.809 77.912 44.361 76.956 44.033 75.732 43.077 75.18L33.791 69.819C32.835 69.267 31.612 69.594 31.059 70.551 30.507 71.508 30.835 72.731 31.791 73.283M24.64 103.971L35.362 103.971C36.467 103.971 37.362 103.076 37.362 101.971 37.362 100.866 36.467 99.971 35.362 99.971L24.64 99.971C23.536 99.971 22.64 100.866 22.64 101.971 22.64 103.076 23.536 103.971 24.64 103.971M33.791 134.123L43.077 128.762C44.033 128.21 44.361 126.986 43.809 126.03 43.257 125.073 42.033 124.746 41.077 125.298L31.791 130.659C30.835 131.211 30.507 132.434 31.059 133.391 31.612 134.347 32.835 134.675 33.791 134.123M56.792 155.66L62.153 146.374C62.706 145.418 62.378 144.194 61.421 143.642 60.465 143.09 59.241 143.418 58.689 144.374L53.328 153.66C52.776 154.616 53.104 155.84 54.06 156.392 55.017 156.944 56.24 156.616 56.792 155.66M87.48 162.811L87.48 152.089C87.48 150.984 86.585 150.089 85.48 150.089 84.376 150.089 83.48 150.984 83.48 152.089L83.48 162.811C83.48 163.915 84.376 164.811 85.48 164.811 86.585 164.811 87.48 163.915 87.48 162.811M117.632 153.66L112.271 144.374C111.719 143.418 110.496 143.09 109.539 143.642 108.582 144.194 108.255 145.418 108.807 146.374L114.168 155.66C114.72 156.616 115.943 156.944 116.9 156.392 117.857 155.84 118.184 154.616 117.632 153.66M139.169 130.659L129.883 125.298C128.927 124.746 127.704 125.073 127.151 126.03 126.599 126.986 126.927 128.21 127.883 128.762L137.169 134.123C138.126 134.675 139.349 134.347 139.901 133.391 140.453 132.434 140.126 131.211 139.169 130.659M146.32 99.971L135.598 99.971C134.493 99.971 133.598 100.866 133.598 101.971 133.598 103.076 134.493 103.971 135.598 103.971L146.32 103.971C147.425 103.971 148.32 103.076 148.32 101.971 148.32 100.866 147.425 99.971 146.32 99.971M137.169 69.819L127.883 75.18C126.927 75.732 126.599 76.956 127.151 77.912 127.704 78.869 128.927 79.196 129.883 78.644L139.169 73.283C140.126 72.731 140.453 71.508 139.901 70.551 139.349 69.594 138.126 69.267 137.169 69.819M114.168 48.282L108.807 57.568C108.255 58.524 108.582 59.747 109.539 60.3 110.496 60.852 111.719 60.524 112.271 59.568L117.632 50.282C118.184 49.326 117.857 48.102 116.9 47.55 115.943 46.998 114.72 47.326 114.168 48.282"/>
      <path fill="#6F6F6C" d="M89.98,101.971 L89.98,73.39 C89.98,70.904 87.965,68.89 85.48,68.89 C82.995,68.89 80.98,70.904 80.98,73.39 L80.98,101.971 C80.98,104.456 82.995,106.471 85.48,106.471 C87.965,106.471 89.98,104.456 89.98,101.971"/>
      <path fill="#6F6F6C" d="M120.479,115.308 L86.77,99.262 C85.273,98.55 83.483,99.186 82.771,100.682 C82.059,102.178 82.695,103.968 84.191,104.68 L117.9,120.725 C119.396,121.438 121.186,120.802 121.899,119.306 C122.611,117.81 121.975,116.02 120.479,115.308"/>
      <path fill="#5A5A57" d="M93.002,101.971 C93.002,106.125 89.634,109.492 85.48,109.492 C81.326,109.492 77.959,106.125 77.959,101.971 C77.959,97.817 81.326,94.45 85.48,94.45 C89.634,94.45 93.002,97.817 93.002,101.971"/>
      <path fill="#595959" d="M85.48,171.71 C46.964,171.71 15.741,140.487 15.741,101.971 C15.741,63.455 46.964,32.232 85.48,32.232 C123.996,32.232 155.219,63.455 155.219,101.971 C155.219,140.487 123.996,171.71 85.48,171.71 Z M85.48,17.34 C38.74,17.34 0.849,55.231 0.849,101.971 C0.849,148.711 38.74,186.602 85.48,186.602 C132.22,186.602 170.111,148.711 170.111,101.971 C170.111,55.231 132.22,17.34 85.48,17.34 L85.48,17.34 Z"/>
      <path fill="#5A5A57" d="M85.48,32.232 L85.48,30.232 C45.859,30.233 13.743,62.35 13.741,101.971 C13.743,141.592 45.859,173.709 85.48,173.71 C125.101,173.709 157.218,141.592 157.219,101.971 C157.218,62.35 125.101,30.233 85.48,30.232 L85.48,34.232 C104.192,34.233 121.114,41.811 133.379,54.072 C145.64,66.337 153.218,83.259 153.219,101.971 C153.218,120.683 145.64,137.605 133.379,149.87 C121.114,162.131 104.192,169.709 85.48,169.71 C66.768,169.709 49.846,162.131 37.582,149.87 C25.32,137.605 17.742,120.683 17.741,101.971 C17.742,83.259 25.32,66.337 37.582,54.072 C49.846,41.811 66.768,34.233 85.48,34.232 L85.48,32.232"/>
    </g>
    <g filter="url(#logo-b)" transform="rotate(-15 313.627 40.91)">
      <path fill="#FFFFFE" d="M85.8203398,191.273753 C85.8203398,191.273753 -27.5417027,179.351358 19.3775806,93.7032809 C19.3775806,93.7032809 39.3907287,59.5046784 71.9580378,76.0059212 C71.9580378,76.0059212 63.9988101,-8.22749506 153.218958,4.26358387 C224.680563,14.2684317 205.799415,78.8751917 205.799415,78.8751917 C205.799415,78.8751917 255.259827,25.915884 303.312284,76.484133 C354.174779,130.0086 236.391596,173.099356 225.8748,175.490415 C225.8748,175.490415 207.233203,165.92383 170.665144,176.20832 C96.6729782,197.015819 85.8203398,191.273753 85.8203398,191.273753"/>
      <path fill="#646666" d="M84.2521758,191.167848 C85.6660945,191.640488 87.172787,191.696923 88.6501207,191.767466 C90.1345005,191.792156 91.6200546,191.786277 93.10326,191.682814 C96.0696709,191.533497 99.0243383,191.196066 101.967262,190.793969 C103.442247,190.617611 104.907837,190.37894 106.374602,190.13439 C107.839018,189.882786 109.31048,189.686441 110.767849,189.387808 C113.686112,188.826989 116.613769,188.326132 119.515591,187.680661 C122.425633,187.076341 125.332152,186.461439 128.22223,185.763061 C131.117005,185.090549 134.015304,184.43097 136.892464,183.679685 C139.770798,182.940156 142.662051,182.250009 145.529816,181.470506 L154.133112,179.141404 C157.000878,178.370131 159.8569,177.513031 162.718793,176.702959 L171.317392,174.248055 C177.101071,172.651427 182.997488,171.401636 188.976109,170.630363 C194.951208,169.84263 201.017906,169.571039 207.078732,169.954324 C210.107383,170.160075 213.138383,170.508088 216.141199,171.107706 C217.64202,171.403987 219.136969,171.755528 220.622523,172.185841 C222.13039,172.634967 223.527867,173.077037 225.114416,173.81539 L223.928321,173.666073 C226.355705,173.025306 228.989774,172.062391 231.505234,171.137099 C234.044182,170.189468 236.569036,169.18893 239.076276,168.146066 C244.095453,166.065041 249.042994,163.808833 253.929469,161.438581 C263.684803,156.674561 273.174735,151.341493 282.009378,145.140743 C286.419066,142.035666 290.660822,138.708377 294.584329,135.077752 C298.50079,131.449478 302.109571,127.509639 305.072459,123.190042 C308.02008,118.876324 310.318285,114.156982 311.320007,109.198969 C312.339344,104.249185 311.9659,99.1242198 310.311239,94.3390375 C308.663625,89.5444494 305.8581,85.1072804 302.479492,81.1157094 C301.643354,80.1116441 300.790775,79.1875278 299.826633,78.1611238 C298.92708,77.268752 297.98525,76.2599838 297.023457,75.3652606 C295.117485,73.5087979 293.098775,71.7910703 291.044835,70.1262502 C288.960362,68.5061073 286.812474,66.976495 284.587079,65.5832663 C282.348765,64.2135519 280.04234,62.9731668 277.667802,61.8973826 C272.918726,59.7446384 267.885457,58.2985022 262.747671,57.6530317 C257.607536,57.0052097 252.372279,57.1839192 247.240365,58.089224 C242.107276,58.9921773 237.075182,60.5946843 232.263865,62.7427256 C227.446677,64.8813611 222.836175,67.5384894 218.478158,70.568321 C216.299736,72.0850005 214.182381,73.6933861 212.142534,75.3899507 C210.126173,77.0688795 208.082802,78.9041792 206.364726,80.6865714 C205.244395,81.849359 203.395967,81.8822791 202.234533,80.7606418 C201.441846,79.9952478 201.175269,78.8900705 201.441846,77.895411 L201.446544,77.8801267 C202.009058,75.7991014 202.462357,73.3947531 202.795873,71.1032739 C203.129389,68.7812259 203.358387,66.4391908 203.471125,64.0948041 C203.6966,59.4095581 203.502833,54.7090276 202.767689,50.1166635 C202.030196,45.5266507 200.756025,41.0448043 198.862971,36.8580637 C196.974615,32.6689717 194.459155,28.7890941 191.392924,25.3865591 C188.333739,21.9769697 184.737876,19.0411957 180.787359,16.6274416 C176.850934,14.1889973 172.559855,12.2784516 168.121983,10.7523664 C163.688807,9.25214706 159.026633,8.11875253 154.425526,7.32866837 C149.668229,6.53152989 144.941466,6.00480712 140.182996,5.73321569 C130.694239,5.18532995 121.129149,5.83432765 112.157107,8.49028019 C107.692224,9.84000729 103.37296,11.6553197 99.4283151,14.0855339 C95.4566596,16.4710707 91.8760631,19.4668065 88.738197,22.8775716 C85.6285153,26.3177297 82.965087,30.1799714 80.8136758,34.3396705 C78.6575672,38.497018 76.9841168,42.9224299 75.6923306,47.4712924 C74.4064162,52.0236821 73.5350477,56.7124553 73.0124614,61.4435545 C72.5110135,66.1464364 72.3066764,71.0221491 72.6002642,75.6168647 L72.606136,75.7038681 C72.6836431,76.9230902 71.7594288,77.97536 70.5416267,78.0529576 C70.1294295,78.0799991 69.7278014,77.9871172 69.3848909,77.8107591 C65.6974284,75.9013891 61.7774445,74.4881731 57.7435484,73.8344725 C53.7143498,73.1607847 49.5806339,73.2877625 45.6042811,74.223636 C41.6255796,75.1548066 37.8183333,76.8748857 34.3340336,79.1381476 C30.8450365,81.4025852 27.662545,84.1902184 24.8170923,87.2941205 C23.3949531,88.8460715 22.0561929,90.4826744 20.8231242,92.1827662 C20.2289026,93.0187034 19.571266,93.9322382 19.1473252,94.728201 L17.6288892,97.5652145 C15.6630255,101.375725 13.8662683,105.269711 12.3572272,109.268336 C9.38494452,117.26206 7.56587467,125.727247 7.90526214,134.191259 C8.09668137,138.410919 8.88701966,142.595309 10.256313,146.592758 C11.640873,150.586681 13.6607569,154.357216 16.1292429,157.817361 C18.6353081,161.252817 21.5535706,164.409626 24.8123949,167.193732 C28.0500809,170.00488 31.582529,172.484474 35.2793863,174.699532 C38.9680231,176.929873 42.844556,178.854528 46.7974218,180.604 C50.7620312,182.331133 54.8229373,183.847813 58.9413866,185.194013 C63.0574872,186.548443 67.2381771,187.718284 71.4599693,188.723525 C75.6841102,189.719361 79.9458303,190.579988 84.2521758,191.167848 Z M84.2521758,191.167848 C79.9282151,190.72225 75.6336131,190.001534 71.3671955,189.143258 C67.1043011,188.276752 62.869591,187.240942 58.6865524,186.015841 C54.5023394,184.793092 50.3815414,183.34578 46.3335532,181.70565 C42.2973084,180.037303 38.3244787,178.185543 34.5172324,176.01046 C30.70294,173.850662 27.0307441,171.40869 23.6298234,168.599894 C20.2089386,165.818139 17.1016056,162.626058 14.3959007,159.101248 C11.727775,155.551748 9.49768223,151.63072 7.92874916,147.438101 C6.3739083,143.243131 5.42620697,138.816543 5.11382957,134.351157 C4.50786441,125.385112 6.38095441,116.482557 9.31213475,108.154929 C10.8117811,103.988175 12.6061896,99.9460484 14.5685303,95.9968034 L16.0846175,93.0598537 C16.6800136,91.9335134 17.2953735,91.0740618 17.942441,90.1276068 C19.2342272,88.2876043 20.6270076,86.5310779 22.1149104,84.8545005 C25.0942392,81.5048729 28.4528833,78.4597568 32.2202016,75.9296064 C35.9816482,73.4029831 40.1776047,71.4136641 44.6518824,70.2920267 C49.119114,69.1645108 53.838831,68.9481782 58.3917902,69.6371504 C62.9553186,70.3049597 67.3356482,71.8204633 71.3918569,73.8427026 L68.177658,76.0354212 C67.7713325,70.8916442 67.9263468,65.9771326 68.3737746,60.9709148 C68.8482124,55.9952658 69.6913965,51.0407797 70.9843571,46.1791756 C72.2702715,41.3175715 74.044716,36.5594307 76.3429211,32.0329069 C78.6411263,27.5075588 81.5206351,23.2455721 84.9262533,19.4233049 C88.3577072,15.6304306 92.310573,12.2737487 96.6803335,9.60133604 C101.024258,6.88189459 105.758067,4.85024962 110.605789,3.34650313 C120.347031,0.383687548 130.525132,-0.352313466 140.476583,0.141489131 C145.454658,0.374281784 150.430383,0.948033374 155.291023,1.74046897 C160.298456,2.58463627 165.14148,3.75330242 169.950447,5.3605123 C174.730056,6.99006087 179.413368,9.05227458 183.779606,11.7387959 C188.154064,14.3959241 192.207924,17.6750085 195.673434,21.5196145 C199.149513,25.3548146 202.01493,29.7520092 204.147551,34.4537153 C206.289568,39.1565972 207.714056,44.141652 208.537276,49.1831414 C209.354624,54.2281579 209.591843,59.3343119 209.322917,64.3922614 C209.194912,66.9224119 208.940078,69.4419808 208.573681,71.9497926 C208.190842,74.4834702 207.75046,76.8866429 207.031758,79.5155538 L202.112401,76.7079333 C204.201571,74.5528377 206.254337,72.7410525 208.444502,70.9186857 C210.6194,69.1186577 212.869457,67.4197416 215.1888,65.8137075 C219.826313,62.6075177 224.750367,59.7822614 229.945696,57.491958 C235.133979,55.1934245 240.613502,53.4545339 246.264479,52.4751587 C251.909585,51.4934321 257.734366,51.3053169 263.454631,52.0413179 C269.171372,52.7784946 274.780073,54.3915831 279.97775,56.8123915 C282.578938,58.0151536 285.089701,59.3919223 287.508864,60.8991959 C289.913935,62.4299839 292.215663,64.0983313 294.43871,65.8560334 C296.625352,67.65371 298.763845,69.5066455 300.766114,71.4877345 C301.800717,72.4671096 302.721408,73.4676477 303.752488,74.5152147 C304.656739,75.4910627 305.652589,76.5868341 306.560362,77.6955385 C310.206722,82.0786245 313.351634,87.0695579 315.230596,92.6742173 C316.15481,95.4712563 316.764299,98.4035032 316.941626,101.374549 C317.120127,104.344419 316.886431,107.336627 316.279292,110.227724 C315.05092,116.026377 312.393364,121.328877 309.116924,126.000014 C305.816998,130.678206 301.916978,134.804985 297.7586,138.561412 C293.592003,142.315487 289.152956,145.702738 284.570638,148.840736 C275.391909,155.104974 265.658888,160.402771 255.686298,165.113883 C250.69648,167.470027 245.626806,169.640407 240.49959,171.6697 C237.933632,172.68082 235.352409,173.651965 232.746524,174.570202 C230.107757,175.48021 227.582902,176.374933 224.703393,177.082717 C224.309985,177.179126 223.915403,177.127394 223.578365,176.961618 L223.517298,176.933401 C222.413408,176.393745 220.9807,175.881131 219.644288,175.466101 C218.277344,175.044018 216.878692,174.68895 215.464773,174.385614 C212.640458,173.768361 209.75038,173.3839 206.847384,173.134648 C201.031998,172.652602 195.148499,172.844245 189.308451,173.459147 C183.463705,174.069346 177.65419,175.151008 171.928055,176.58186 L163.296574,178.820432 C160.413542,179.561136 157.545777,180.345341 154.647478,181.050774 L145.958454,183.176476 C143.063679,183.887787 140.148939,184.509743 137.244769,185.18108 C134.344122,185.861822 131.422336,186.452034 128.504074,187.056354 C125.590509,187.685364 122.659329,188.230899 119.726974,188.765851 C116.801665,189.337252 113.85287,189.784025 110.908771,190.254314 C109.440833,190.504742 107.954104,190.652883 106.477945,190.857458 C105.000611,191.054979 103.522103,191.246622 102.036549,191.374775 C99.0713123,191.680462 96.0955066,191.922661 93.1138292,191.975568 C91.6235777,192.029651 90.1309774,191.987325 88.6430746,191.913255 C87.1633922,191.794507 85.650828,191.687517 84.2521758,191.167848 L84.2521758,191.167848 Z"/>
      <path fill="#FFFFFE" d="M112,188 C112,188 109.371146,167.825741 88,159"/>
      <path fill="#646666" d="M109.053946,190 C109.053946,190 109.043262,189.856154 109.021895,189.58884 C109.010024,189.368277 108.968477,188.993078 108.900813,188.482425 C108.758364,187.480299 108.518576,186.014269 108.049681,184.279726 C107.84313,183.403465 107.536865,182.478056 107.219916,181.491512 C106.886349,180.510962 106.487492,179.489656 106.051836,178.441978 C105.567509,177.419473 105.124731,176.317853 104.516949,175.288156 C104.22849,174.760721 103.937657,174.230888 103.644449,173.697459 L102.648494,172.1655 C102.015784,171.108232 101.224005,170.17683 100.489206,169.210665 C100.131897,168.715595 99.7366015,168.263679 99.3223126,167.838135 C98.9175203,167.400603 98.5174764,166.967867 98.1233678,166.542322 C97.7411299,166.101195 97.3232798,165.712811 96.8994944,165.348401 C96.4816443,164.974402 96.0732908,164.608793 95.675621,164.251576 C94.9004616,163.501179 94.0612003,162.936584 93.3074082,162.376784 C92.5393713,161.840957 91.876984,161.264375 91.2074742,160.897568 C90.547461,160.506786 89.9729171,160.166351 89.4992746,159.885851 C88.544867,159.322455 88,159 88,159 C88,159 88.5852275,159.236147 89.6108595,159.650903 C90.1260497,159.85948 90.7516377,160.113607 91.4698175,160.403697 C92.2022423,160.674607 92.9417894,161.144503 93.8024181,161.572445 C94.6488019,162.021964 95.5972741,162.47388 96.4970763,163.116391 C96.9612222,163.420865 97.4360519,163.73373 97.9227523,164.053788 C98.4177621,164.365454 98.911585,164.703492 99.3721697,165.096671 C99.8481864,165.477862 100.331326,165.865048 100.821587,166.255829 C101.322532,166.639418 101.808046,167.051777 102.257947,167.509686 C103.179116,168.403929 104.17151,169.276594 105.008397,170.290708 L106.318927,171.772321 C106.716597,172.294962 107.114267,172.816403 107.508375,173.334248 C108.329831,174.354356 108.985096,175.459572 109.679534,176.501257 C110.324115,177.568114 110.927149,178.621786 111.45421,179.645489 C111.965839,180.676385 112.454913,181.654538 112.83359,182.593133 C113.643174,184.447546 114.167861,186.071807 114.514487,187.238158 C114.680677,187.81474 114.808881,188.294227 114.889602,188.66463 C114.962014,188.984687 115,189.154905 115,189.154905 L109.053946,190"/>
      <path fill="#FFFFFE" d="M214,173 C214,171.934086 220.802368,135.666148 243,125"/>
      <path fill="#646666" d="M210,172.569965 C210,172.569965 210.008419,172.513015 210.026459,172.406087 C210.045701,172.282888 210.103429,171.90748 210.168373,171.611104 C210.277816,171.149689 210.436568,170.499988 210.661467,169.708492 C211.102846,168.116201 211.790772,165.895131 212.734866,163.277731 C214.615839,158.04758 217.561172,151.218165 221.514341,144.918739 C222.482488,143.336909 223.542039,141.803894 224.618426,140.325504 C225.698422,138.848277 226.840956,137.450084 227.983491,136.130923 C229.150078,134.828035 230.322679,133.613477 231.494078,132.519795 C232.669084,131.428437 233.841685,130.467251 234.946937,129.611831 C235.515799,129.206204 236.06181,128.816848 236.58016,128.447251 C237.104523,128.085789 237.631291,127.78244 238.10875,127.477929 C239.05525,126.856122 239.971683,126.451657 240.674041,126.051841 C242.150917,125.362624 243,125 243,125 C243,125 242.191807,125.455604 240.819563,126.291266 C240.16892,126.764304 239.322242,127.252452 238.465943,127.964914 C238.032982,128.313591 237.555523,128.662268 237.086483,129.069057 C236.625861,129.48282 236.139983,129.917504 235.632457,130.370784 C234.658297,131.318022 233.636029,132.367539 232.629396,133.540255 C231.625169,134.714134 230.635373,136.003075 229.66482,137.368726 C228.718321,138.75181 227.782645,140.20463 226.916724,141.728347 C226.053209,143.253226 225.213747,144.819947 224.465688,146.430834 C221.398885,152.840674 219.35435,159.65498 218.152885,164.785176 C217.549145,167.352599 217.148657,169.507421 216.916542,170.995109 C216.795073,171.741277 216.726521,172.30962 216.683225,172.678055 C216.672401,172.888423 216.66759,173 216.66759,173 L210,172.569965"/>
      <path fill="#FFFFFE" d="M144,184 C143.795591,172.337309 139,134 139,134"/>
      <path fill="#646666" d="M140.473733,184 C140.473733,184 140.495574,183.214111 140.53351,181.839097 C140.551903,181.152171 140.574894,180.317383 140.601333,179.360345 C140.646166,178.387007 140.608231,177.368262 140.608231,176.217953 C140.599034,175.071138 140.590987,173.827687 140.580641,172.514379 C140.58524,171.208057 140.520864,169.767843 140.488677,168.309 C140.415105,165.377343 140.326589,162.244266 140.19554,159.10886 C139.971376,152.836884 139.658696,146.557923 139.421888,141.848411 C139.168985,137.140063 139,134 139,134 C139,134 139.697781,137.065549 140.742729,141.66329 C141.772732,146.265689 143.144155,152.404937 144.430509,158.573291 C145.093804,161.651647 145.714565,164.745139 146.289344,167.651182 C146.572135,169.112353 146.873319,170.488532 147.107828,171.864711 C147.351535,173.231575 147.581446,174.522762 147.794114,175.716149 C147.998735,176.904878 148.225198,178.02608 148.341304,178.962161 C148.476951,179.911049 148.596505,180.738852 148.693068,181.419956 C148.888493,182.782163 149,183.561066 149,183.561066 L140.473733,184"/>
      <path fill="#C0C1BE" d="M104.525588,190 C104.525588,190 104.516196,189.858748 104.498587,189.593003 C104.490369,189.381125 104.452802,189.011237 104.390582,188.503688 C104.260272,187.51253 104.037219,186.055721 103.591113,184.330772 C103.393887,183.45932 103.100396,182.537591 102.797513,181.553616 C102.477021,180.576824 102.093134,179.559331 101.672855,178.51311 C101.20327,177.493223 100.775947,176.393134 100.186617,175.364869 C99.9060394,174.838167 99.623114,174.307873 99.3390147,173.773989 L98.3693204,172.241765 C97.7541632,171.18477 96.9816949,170.251072 96.2644028,169.281461 C95.9145615,168.78708 95.5295013,168.333398 95.1233097,167.906051 C94.7276838,167.466734 94.3355798,167.032205 93.9505196,166.606055 C93.576025,166.161949 93.1663116,165.771711 92.7507283,165.405414 C92.3410148,165.02954 91.9395191,164.660849 91.549763,164.301734 C90.7902083,163.547592 89.9649115,162.977797 89.2241402,162.412789 C88.4704552,161.871723 87.8177312,161.29235 87.1591374,160.920068 C86.5099352,160.525042 85.9440845,160.180291 85.4768468,159.89659 C84.5376756,159.325598 84,159 84,159 C84,159 84.5822862,159.232228 85.5989391,159.638028 C86.1107874,159.84392 86.7318144,160.092907 87.4455846,160.377804 C88.1722684,160.643549 88.9083438,161.106808 89.7641637,161.528169 C90.6058959,161.972275 91.5485891,162.417577 92.4443237,163.054408 C92.9056916,163.354867 93.381147,163.664903 93.8648202,163.980924 C94.3578851,164.29096 94.8497761,164.624937 95.30997,165.016373 C95.7854255,165.393443 96.2667507,165.777696 96.7551198,166.166737 C97.2552285,166.547399 97.7400757,166.95679 98.1897039,167.411669 C99.1100917,168.302274 100.100917,169.171333 100.939128,170.180446 L102.250446,171.657605 C102.650767,172.179519 103.048741,172.700236 103.443193,173.216164 C104.266142,174.234853 104.924736,175.337336 105.622071,176.379967 C106.270099,177.446538 106.877038,178.499942 107.40767,179.52342 C107.92304,180.555277 108.417279,181.534463 108.799991,182.475345 C109.61707,184.334363 110.151224,185.963548 110.503413,187.136657 C110.673638,187.714832 110.803948,188.200834 110.886125,188.576708 C110.961259,188.898714 111,189.071089 111,189.071089 L104.525588,190"/>
      <path fill="#FFFFFE" d="M182.218711,174 C182.218711,174 174.072011,154.317518 189,136"/>
      <path fill="#646666" d="M180.461835,175 C180.461835,175 180.413221,174.834515 180.322068,174.523641 C180.213901,174.165485 180.094796,173.687943 179.963536,173.109929 C179.70588,171.937352 179.386239,170.281324 179.207581,168.289598 C179.089691,167.29669 179.05323,166.216312 179.009477,165.080378 C178.983954,163.943262 179.011908,162.743499 179.070245,161.51182 C179.185704,160.27896 179.235534,159.010638 179.476176,157.734043 C179.577051,157.098109 179.679142,156.457447 179.782447,155.813239 L180.235778,153.906619 C180.493434,152.628842 180.957703,151.399527 181.34905,150.184397 C181.530139,149.573286 181.764704,148.984634 182.028437,148.413712 C182.276371,147.840426 182.521874,147.274232 182.763732,146.717494 C182.986143,146.156028 183.264461,145.62766 183.556148,145.120567 C183.836897,144.611111 184.112784,144.112293 184.380164,143.62766 C184.874816,142.641844 185.505589,141.79669 186.04521,141.002364 C186.610354,140.22104 187.045454,139.459811 187.57049,138.875887 C188.072435,138.280142 188.511181,137.761229 188.872144,137.334515 C189.590423,136.484634 190,136 190,136 C190,136 189.668206,136.539007 189.087263,137.483452 C188.798006,137.952719 188.447982,138.522459 188.045697,139.176123 C187.623966,139.814421 187.310403,140.630024 186.882595,141.460993 C186.477879,142.306147 186.000242,143.196217 185.670879,144.21513 C185.487359,144.713948 185.298978,145.22695 185.105735,145.750591 C184.903985,146.268322 184.718035,146.803783 184.590421,147.368794 C184.443363,147.925532 184.295088,148.490544 184.144383,149.062648 C183.98031,149.628842 183.84662,150.210402 183.76519,150.808511 C183.578025,151.995272 183.321583,153.179669 183.268107,154.397163 L183.121048,156.198582 C183.118617,156.799054 183.116187,157.398345 183.113756,157.991726 C183.070003,159.172577 183.20977,160.338061 183.272969,161.452719 C183.392074,162.568558 183.531841,163.643026 183.710499,164.648936 C183.907388,165.654846 184.083615,166.601655 184.324257,167.457447 C184.748419,169.182033 185.249148,170.565012 185.608895,171.498818 C185.797276,171.972813 185.94312,172.317967 186.039134,172.514184 C186.152162,172.755319 186.211715,172.884161 186.211715,172.884161 L180.461835,175"/>
      <path fill="#C0C1BE" d="M183.374396 172C183.374396 172 183.327981 171.832613 183.238723 171.517878 183.132803 171.152456 183.017363 170.670334 182.891211 170.089194 182.643668 168.906876 182.340191 167.242436 182.177146 165.242043 182.068846 164.245972 182.039093 163.161493 182.00458 162.021611 181.986728 160.881729 182.022431 159.679371 182.087887 158.445187 182.210469 157.208644 182.268784 155.937917 182.513947 154.661297 182.617486 154.025933 182.722216 153.383497 182.828135 152.739882L183.287518 150.832613C183.550532 149.554813 184.015865 148.326523 184.40741 147.114735 184.591877 146.504126 184.825139 145.915914 185.088153 145.346562 185.336886 144.774853 185.582048 144.210216 185.822451 143.65501 186.045001 143.095088 186.322296 142.569352 186.612683 142.063654 186.892359 141.556778 187.164894 141.060511 187.431478 140.57721 187.924184 139.595285 188.548991 138.755992 189.08573 137.965029 189.645082 137.189391 190.077091 136.432613 190.595979 135.852652 191.093445 135.262083 191.526645 134.746955 191.884868 134.322593 192.594173 133.480943 193 133 193 133 193 133 192.67867 133.541061 192.115749 134.487623 191.837263 134.956778 191.498082 135.528487 191.108916 136.182711 190.700709 136.821611 190.399611 137.637328 189.987833 138.469548 189.598667 139.314735 189.138095 140.204715 188.823906 141.223183 188.64896 141.720629 188.468064 142.23222 188.283597 142.755599 188.089609 143.273084 187.912283 143.807073 187.792081 144.37053 187.652839 144.925737 187.512406 145.489194 187.370783 146.059725 187.213688 146.624361 187.087537 147.203143 187.01375 147.798428 186.839994 148.981925 186.598402 150.160707 186.557938 151.371316L186.428216 153.163065C186.430596 153.759528 186.432977 154.353635 186.435357 154.944204 186.403224 156.117092 186.548417 157.273477 186.619824 158.380354 186.745975 159.486051 186.891169 160.55167 187.073255 161.547741 187.273194 162.54499 187.4529 163.482122 187.694493 164.328487 188.121742 166.035363 188.620398 167.400393 188.978621 168.319843 189.165468 168.78664 189.310661 169.124951 189.40349 169.311198 189.51536 169.549312 189.574865 169.675442 189.574865 169.675442L183.374396 172M206 170.568814C206 170.568814 206.009619 170.513027 206.026451 170.404939 206.045688 170.282906 206.103399 169.906344 206.168324 169.609976 206.277735 169.148571 206.437643 168.498886 206.662477 167.707409 207.10493 166.113995 207.791453 163.89414 208.736474 161.275642 210.6181 156.04678 213.562575 149.216368 217.515794 142.917094 218.484862 141.335303 219.542901 139.803487 220.620177 138.325133 221.699858 136.84678 222.843262 135.44862 223.984261 134.129492 225.150508 132.827797 226.32397 131.612107 227.496229 130.519613 228.669691 129.427119 229.843152 128.465956 230.946879 127.610557 231.516778 127.206102 232.06263 126.816755 232.582031 126.447167 233.105039 126.085714 233.632856 125.783535 234.110176 125.477869 235.0564 124.856077 235.971363 124.452785 236.673516 124.051816 238.149962 123.363777 239 123 239 123 239 123 238.192043 123.456755 236.820199 124.292397 236.169745 124.765424 235.323314 125.253559 234.467264 125.966005 234.03443 126.315835 233.558312 126.663341 233.089409 127.071283 232.627719 127.485036 232.141983 127.919709 231.635807 128.372978 230.660728 129.320194 229.638758 130.369685 228.632419 131.542373 227.628484 132.715061 226.640179 134.005133 225.671112 135.370751 224.724888 136.753801 223.789485 138.206586 222.923817 139.730266 222.060553 141.255109 221.221336 142.821792 220.473494 144.432639 217.408788 150.843487 215.366051 157.656465 214.166138 162.7877 213.562575 165.355061 213.162204 167.509831 212.931359 168.99632 212.809925 169.74247 212.741393 170.310799 212.698109 170.679225 212.687288 170.888426 212.682479 171 212.682479 171L206 170.568814M137.557529 184C137.557529 184 137.562162 183.214416 137.571429 181.840226 137.576062 181.152548 137.581853 180.31801 137.587645 179.361089 137.611969 178.391347 137.550579 177.358665 137.523938 176.201268 137.490347 175.047368 137.453282 173.797893 137.4139 172.476153 137.388417 171.159075 137.293436 169.725442 137.22973 168.265001 137.09305 165.332463 136.93668 162.201781 136.737452 159.069933 136.37722 152.803907 135.927799 146.535549 135.590734 141.834864 135.236293 137.133013 135 134 135 134 135 134 135.634749 137.077067 136.589189 141.694997 137.526255 146.316425 138.774903 152.479883 139.937838 158.666651 140.537838 161.756539 141.097297 164.858082 141.612741 167.770805 141.866409 169.233577 142.140927 170.618257 142.345946 171.988951 142.56139 173.350319 142.766409 174.637093 142.955212 175.824794 143.134749 177.011329 143.33861 178.119772 143.435907 179.061541 143.552896 180.012635 143.653668 180.84251 143.737066 181.52436 143.905019 182.890391 144 183.671313 144 183.671313L137.557529 184M20.098355 108.104844C19.946608 105.280963-19.7944995 160.245921 68.0361697 183 68.0361697 183 56.4536084 165.460495 69 160.245921 69 160.245921 23.1546337 164.986548 20.098355 108.104844M166 17.8310076C166 17.8310076 80.3689198-14.7211826 81.0035097 74 81.0035097 74 84.8087122 70.80711 96.2266571 73.360246 96.2266571 73.360246 82.2703523 2.51101549 166 17.8310076M295 80.4015953C295 80.4015953 259.091982 36.1506259 211 84.8904987 211 84.8904987 214.206368 93.8694871 216.129717 99 216.129717 99 241.77712 43.2047858 295 80.4015953"/>
      <path fill="#FFFFFE" d="M85.7067557,190.556866 L80,264.007625 C80,264.007625 104.663465,258.111692 141.819876,270.685073 C175.70644,282.151209 228.368638,260.191438 228.368638,260.191438 C228.368638,260.191438 231.698065,236.344078 228.844103,214.404226 C225.99131,192.464373 224.089447,173.863831 224.089447,173.863831 C224.089447,173.863831 194.129272,167.186383 154.659784,179.109477 C115.189129,191.033742 96.6436331,191.988668 85.7067557,190.556866"/>
      <path fill="#646666" d="M84.4948502,190.906777 C90.3872772,191.474754 96.3009254,191.10352 102.137941,190.393842 C103.598669,190.222863 105.057039,190.027292 106.509514,189.789561 C107.965526,189.581108 109.415643,189.322298 110.862223,189.05529 C112.31234,188.808191 113.754204,188.513077 115.196069,188.213279 C116.637933,187.927534 118.07744,187.619538 119.51223,187.290463 C122.388885,186.6733 125.244319,185.95074 128.100932,185.245746 C130.948113,184.492737 133.796473,183.758466 136.62597,182.937535 C139.466077,182.154078 142.27789,181.296842 145.099134,180.473569 C147.919199,179.639755 150.741622,178.734505 153.562866,177.870244 C156.388826,176.9931 159.26666,176.137036 162.153925,175.392225 C165.040012,174.628677 167.953215,173.958815 170.880565,173.347508 C176.736444,172.143631 182.668956,171.284054 188.630941,170.717248 C194.595284,170.157469 200.596175,169.917396 206.602961,170.025136 C209.608123,170.081348 212.613284,170.230076 215.617266,170.501768 C218.647186,170.779316 221.568641,171.113075 224.708203,171.72204 C225.796381,171.932836 226.579208,172.819348 226.702999,173.858102 L226.713609,173.961157 L227.969198,184.680111 C228.168442,186.463676 228.424276,188.260122 228.649457,190.049542 L230.739747,206.169546 L231.411753,211.544833 L232.064895,216.957594 C232.304223,218.792687 232.413866,220.62895 232.57892,222.465214 C232.690921,224.300306 232.813533,226.136569 232.871302,227.971662 C232.934965,229.806754 232.988018,231.641847 232.989197,233.473426 C233.021029,235.308518 232.973871,237.137755 232.958544,238.969334 C232.872481,242.628979 232.708606,246.28394 232.45513,249.934216 C232.326623,251.758769 232.179254,253.58215 232.003589,255.405532 C231.83264,257.238282 231.639292,259.032386 231.382279,260.910809 L231.378742,260.931888 C231.234909,261.988208 230.525177,262.831391 229.597338,263.204967 C226.515545,264.435779 223.518636,265.501468 220.45099,266.541392 C217.395133,267.569606 214.321593,268.540437 211.225651,269.439831 C205.037306,271.244475 198.772329,272.807876 192.428361,274.057425 C189.256967,274.685127 186.06671,275.236709 182.855231,275.68055 C179.649647,276.164209 176.409873,276.454639 173.16892,276.711106 C169.918536,276.89848 166.662257,277.056577 163.388293,276.980456 C160.119045,276.951179 156.839187,276.727502 153.568761,276.334017 C150.292439,275.953414 147.07035,275.301118 143.750407,274.443883 L141.459693,273.747087 L139.123001,273.012816 L134.642964,271.578235 C133.157478,271.072326 131.62955,270.719829 130.125201,270.274816 C128.612599,269.85908 127.111787,269.401185 125.579143,269.070939 L121.000074,267.992368 L116.3821,267.1 C114.847098,266.770925 113.288516,266.598775 111.741725,266.343479 C110.193754,266.083497 108.637531,265.905492 107.07895,265.738027 L104.743436,265.47219 L102.400849,265.295356 L100.057082,265.119693 L97.7109579,265.026006 C94.5820061,264.887818 91.4518753,264.906556 88.3299973,265.026006 C85.2364141,265.167708 82.0414407,265.448769 79.1376697,265.995666 L79.0268477,266.015574 C78.0990086,266.190066 77.2041803,265.584615 77.0296946,264.664141 C76.9990417,264.503702 76.993147,264.33975 77.0072944,264.186338 L78.7686562,245.857664 L80.6019343,227.534847 L82.500055,209.217884 L84.4948502,190.906777 Z M84.4948502,190.906777 L83.6094535,209.303374 L82.6285613,227.691772 L81.5816475,246.075486 L80.4639963,264.453345 L78.333621,262.644017 C81.6688903,261.899206 84.829674,261.534998 88.090669,261.26799 C91.3280848,261.041971 94.5737534,260.885045 97.8123482,260.963508 L100.242179,260.999811 L102.667293,261.122775 L105.092408,261.249253 L107.510448,261.463562 C109.123261,261.599408 110.734896,261.743451 112.337098,261.971813 C113.938122,262.195491 115.554472,262.337192 117.142527,262.634648 L121.927913,263.440355 L126.673215,264.438121 C128.263628,264.741432 129.82103,265.173563 131.389043,265.563535 C132.949982,265.981613 134.538037,266.310688 136.073039,266.814255 L140.709877,268.223072 L142.940463,268.888249 L145.226461,269.549913 C148.085432,270.229143 151.123604,270.8182 154.182997,271.123853 C157.241212,271.448244 160.3289,271.614539 163.430736,271.599314 C166.529035,271.628592 169.640302,271.431849 172.745675,271.209343 C175.849868,270.918913 178.952883,270.587496 182.047645,270.11789 C185.144765,269.675219 188.230096,269.12598 191.303636,268.504133 C197.453076,267.262781 203.550642,265.709921 209.578649,263.921672 C212.593242,263.030475 215.587792,262.070184 218.561122,261.053681 C221.517946,260.037178 224.514855,258.95041 227.338456,257.806259 L225.554695,260.100417 C225.770444,258.398829 225.981477,256.602382 226.153605,254.839897 C226.332806,253.070385 226.484892,251.292676 226.618114,249.514967 C226.883379,245.96072 227.060223,242.398275 227.161613,238.837001 C227.184013,237.058121 227.240603,235.276899 227.217024,233.49919 C227.225277,231.719138 227.181655,229.943771 227.129781,228.168404 C227.081444,226.393037 226.971801,224.624697 226.873947,222.855185 C226.721862,221.093871 226.627545,219.322018 226.405902,217.572415 L223.91005,196.079466 L223.293455,190.697153 C223.094211,188.899535 222.866673,187.115971 222.689829,185.306642 L221.583967,174.483462 L223.589373,176.722579 C220.935541,176.167484 217.982254,175.769315 215.131536,175.471859 C212.252523,175.180258 209.355826,174.964778 206.452055,174.838301 C200.644513,174.593544 194.809855,174.684889 188.99406,175.091256 C186.085573,175.299709 183.179444,175.563203 180.285105,175.933267 C177.387228,176.278737 174.5035,176.733119 171.624487,177.222633 C168.747832,177.723858 165.87825,178.283637 163.02989,178.937103 C160.17092,179.573003 157.359107,180.308446 154.514284,181.087218 C151.65885,181.858964 148.826996,182.664671 145.952698,183.409482 C143.07958,184.156635 140.205283,184.902617 137.31566,185.564281 C134.436647,186.268104 131.534055,186.886438 128.637357,187.521167 C125.730049,188.109052 122.826278,188.713333 119.900107,189.213386 C118.441737,189.483907 116.978652,189.732178 115.508492,189.940631 C114.04187,190.166651 112.574069,190.390328 111.099193,190.563649 C109.627855,190.756878 108.155338,190.94191 106.676926,191.076585 C105.200872,191.240537 103.721281,191.36233 102.239332,191.45953 C99.2801497,191.680866 96.3068202,191.74996 93.3405644,191.676181 C90.3754876,191.609429 87.4139477,191.379896 84.4948502,190.906777 L84.4948502,190.906777 Z"/>
      <path fill="#C0C1BE" d="M89.7046208,195 L87,257.753781 C87,257.753781 101.285826,249.584468 147,264 C110.80932,243.338249 89.1454475,245.71585 89.7046208,195"/>
    </g>
    <path fill="#902323" d="M188.330045,246.1508 C188.341764,246.174238 188.365201,246.229901 188.400358,246.317792 C188.435514,246.405683 188.47067,246.505292 188.505826,246.61662 C188.540983,246.727949 188.573209,246.839276 188.602506,246.950605 C188.631803,247.061934 188.646451,247.141034 188.646451,247.18791 C188.646451,247.586349 188.564421,248.063883 188.400358,248.620527 C188.236294,249.17717 188.010711,249.766031 187.7236,250.387128 C187.436489,251.008225 187.099578,251.641031 186.712858,252.285566 C186.326137,252.9301 185.915985,253.542399 185.482389,254.12248 C185.048793,254.702561 184.600555,255.229899 184.137662,255.704511 C183.674769,256.179123 183.220672,256.557049 182.775358,256.8383 C182.611294,256.685956 182.415007,256.504317 182.18649,256.293378 C181.957974,256.08244 181.714812,255.856856 181.456998,255.61662 C181.199184,255.376385 180.941375,255.133223 180.683561,254.887128 C180.425747,254.641033 180.185515,254.400801 179.962858,254.166425 C180.302703,253.896893 180.686488,253.542404 181.114225,253.102949 C181.541961,252.663493 181.975551,252.17424 182.415006,251.635175 C182.854461,251.09611 183.285121,250.539475 183.706998,249.965253 C184.128875,249.391032 184.495083,248.837326 184.805631,248.30412 C185.116179,247.770915 185.359341,247.287521 185.535123,246.853925 C185.710905,246.420329 185.775358,246.07463 185.728483,245.816816 C185.693326,245.687909 185.637663,245.59709 185.56149,245.544355 C185.485318,245.49162 185.347624,245.465253 185.148405,245.465253 C184.433557,245.465253 183.607394,245.605877 182.669889,245.887128 C181.732384,246.16838 180.753878,246.575602 179.734342,247.108808 C178.714806,247.642014 177.686496,248.295328 176.649381,249.068769 C175.612267,249.84221 174.63962,250.715248 173.731412,251.68791 C172.823205,252.660571 172.014619,253.726966 171.305631,254.887128 C170.596643,256.04729 170.054656,257.283606 169.679655,258.596113 C170.499971,258.584394 171.27926,258.552168 172.017545,258.499433 C172.75583,258.446698 173.458948,258.391035 174.12692,258.332441 C174.794892,258.273847 175.433558,258.221113 176.042936,258.174238 C176.652314,258.127362 177.244105,258.103925 177.818326,258.103925 C178.123015,258.103925 178.451137,258.267986 178.802701,258.596113 C179.154266,258.924239 179.482387,259.316814 179.787076,259.773847 C180.091765,260.230881 180.343716,260.699626 180.542936,261.180097 C180.742156,261.660568 180.841764,262.047283 180.841764,262.340253 C180.841764,263.172289 180.627899,264.007241 180.200162,264.845136 C179.772426,265.683031 179.198213,266.491617 178.477506,267.270917 C177.756799,268.050218 176.921847,268.776773 175.972623,269.450605 C175.0234,270.124436 174.024386,270.710368 172.975553,271.208417 C171.92672,271.706467 170.857394,272.099041 169.767545,272.386152 C168.677696,272.673263 167.640597,272.816816 166.656217,272.816816 C166.52731,272.711347 166.35739,272.550215 166.146451,272.333417 C165.935513,272.116619 165.709929,271.876387 165.469694,271.612714 C165.229458,271.349041 164.983367,271.070724 164.731412,270.777753 C164.479458,270.484783 164.245085,270.203536 164.028287,269.934003 C163.811489,269.664471 163.621062,269.418379 163.456998,269.195722 C163.292935,268.973065 163.181608,268.803145 163.123014,268.685956 C163.767548,268.779707 164.543908,268.803144 165.452115,268.756269 C166.360323,268.709394 167.318321,268.580489 168.326139,268.36955 C169.333956,268.158612 170.350548,267.856857 171.375944,267.464277 C172.401339,267.071697 173.359338,266.576584 174.249967,265.978925 C175.140596,265.381266 175.925745,264.669359 176.605436,263.843183 C177.285127,263.017007 177.777309,262.059009 178.081998,260.96916 C177.402307,260.980878 176.787079,261.013105 176.236295,261.065839 C175.685511,261.118574 175.152313,261.177167 174.636686,261.24162 C174.121058,261.306074 173.59372,261.361737 173.054655,261.408613 C172.515589,261.455488 171.917939,261.478925 171.261686,261.478925 C171.050747,261.478925 170.822234,261.475996 170.576139,261.470136 C170.330044,261.464277 170.083953,261.446699 169.837858,261.417402 C169.591763,261.388105 169.35739,261.338301 169.134733,261.267988 C168.912075,261.197675 168.730436,261.098066 168.589811,260.96916 C168.273403,260.699627 167.968718,260.41545 167.675748,260.11662 C167.382778,259.817791 167.119109,259.513106 166.884733,259.202558 C166.650356,258.89201 166.462858,258.578536 166.322233,258.262128 C166.181607,257.94572 166.111295,257.641036 166.111295,257.348066 C166.111295,256.457436 166.333949,255.464282 166.779264,254.368574 C167.224579,253.272865 167.842736,252.168384 168.633756,251.055097 C169.424776,249.94181 170.359337,248.860766 171.437467,247.811933 C172.515597,246.7631 173.69039,245.828539 174.961881,245.008222 C176.233372,244.187905 177.572226,243.531662 178.978483,243.039472 C180.38474,242.547282 181.808554,242.301191 183.249967,242.301191 C183.753876,242.301191 184.213832,242.377362 184.62985,242.529706 C185.045868,242.682051 185.423793,242.881268 185.763639,243.127363 C186.103484,243.373458 186.408169,243.645916 186.677701,243.944745 C186.947234,244.243575 187.187466,244.533611 187.398405,244.814863 C187.609343,245.096114 187.790982,245.356854 187.943326,245.597089 C188.095671,245.837325 188.224576,246.021893 188.330045,246.1508 Z M193.287076,268.105878 C193.287076,268.176191 193.322232,268.211347 193.392545,268.211347 C193.521452,268.211347 193.717739,268.135176 193.981412,267.982831 C194.245086,267.830487 194.54684,267.637129 194.886686,267.402753 C195.226531,267.168377 195.58395,266.904708 195.958951,266.611738 C196.333953,266.318767 196.691372,266.034591 197.031217,265.759199 C197.371062,265.483807 197.678677,265.228926 197.954069,264.99455 C198.229461,264.760174 198.437466,264.584395 198.578092,264.467206 C198.683561,264.572676 198.809537,264.70744 198.956022,264.871503 C199.102507,265.035567 199.240201,265.187909 199.369108,265.328535 C199.111294,265.586348 198.786102,265.896892 198.393522,266.260175 C198.000942,266.623458 197.573212,267.001384 197.110319,267.393964 C196.647426,267.786544 196.166962,268.173259 195.668912,268.55412 C195.170863,268.934982 194.687469,269.274822 194.218717,269.573652 C193.749965,269.872481 193.310516,270.115643 192.900358,270.303144 C192.490199,270.490645 192.150359,270.584394 191.880826,270.584394 C191.681607,270.584394 191.458953,270.522871 191.212858,270.399824 C190.966763,270.276776 190.73532,270.118575 190.518522,269.925214 C190.301724,269.731854 190.120085,269.517989 189.9736,269.283613 C189.827115,269.049237 189.753873,268.826582 189.753873,268.615644 C189.753873,268.428143 189.824185,268.070725 189.964811,267.543378 C190.105436,267.016032 190.275357,266.400804 190.474576,265.697675 C189.94723,266.412523 189.43161,267.042399 188.927701,267.587324 C188.423793,268.132248 187.960907,268.598064 187.53903,268.984785 C187.117152,269.371505 186.748015,269.684979 186.431608,269.925214 C186.1152,270.16545 185.880827,270.3383 185.728483,270.443769 C185.634732,270.502363 185.523405,270.546308 185.394498,270.575605 C185.265591,270.604902 185.148405,270.61955 185.042936,270.61955 C184.820278,270.61955 184.574187,270.552168 184.304655,270.417402 C184.035122,270.282635 183.786101,270.115645 183.557584,269.916425 C183.329067,269.717205 183.13571,269.494551 182.977506,269.248456 C182.819302,269.002361 182.740201,268.767989 182.740201,268.545331 C182.740201,268.287518 182.825161,267.859788 182.995084,267.262128 C183.165007,266.664469 183.39352,265.949632 183.680631,265.117597 C183.967742,264.285562 184.304653,263.35393 184.691373,262.322675 C185.078094,261.29142 185.494105,260.207446 185.93942,259.070722 C185.962858,259.012128 185.983365,258.985761 186.000944,258.99162 C186.018522,258.99748 186.050748,259.00041 186.097623,259.00041 C186.320281,259.035566 186.624965,259.126385 187.011686,259.27287 C187.398406,259.419356 187.776332,259.580487 188.145475,259.756269 C188.514617,259.932051 188.83395,260.099042 189.103483,260.257245 C189.373015,260.415449 189.50778,260.523847 189.50778,260.582441 C189.472623,260.664472 189.381804,260.85783 189.235319,261.162519 C189.088833,261.467208 188.918913,261.833415 188.725553,262.261152 C188.532193,262.688888 188.327117,263.151774 188.110319,263.649824 C187.893521,264.147873 187.694304,264.625407 187.512662,265.082441 C187.331021,265.539474 187.181608,265.952556 187.06442,266.321699 C186.947232,266.690841 186.888639,266.963299 186.888639,267.139081 C186.888639,267.185957 186.912076,267.209394 186.958951,267.209394 C187.052702,267.209394 187.257778,267.083419 187.574186,266.831464 C187.890594,266.57951 188.280238,266.184006 188.743131,265.644941 C189.206024,265.105876 189.730433,264.411547 190.316373,263.561933 C190.902314,262.712319 191.511683,261.689869 192.144498,260.49455 L192.636686,259.105878 C192.671842,259.012128 192.748013,258.965253 192.865201,258.965253 C192.947233,258.965253 193.125942,259.044354 193.401334,259.202558 C193.676726,259.360762 193.969692,259.542401 194.28024,259.74748 C194.590789,259.952559 194.869106,260.157635 195.115201,260.362714 C195.361296,260.567793 195.496061,260.711347 195.519498,260.793378 C195.519498,260.828535 195.513639,260.890058 195.50192,260.977949 C195.490201,261.06584 195.472623,261.139081 195.449186,261.197675 C195.331998,261.514083 195.197233,261.88615 195.044889,262.313886 C194.892544,262.741623 194.737272,263.186931 194.579069,263.649824 C194.420865,264.112717 194.265593,264.578532 194.113248,265.047285 C193.960904,265.516037 193.82321,265.952556 193.700162,266.356855 C193.577115,266.761154 193.477506,267.118572 193.401334,267.42912 C193.325162,267.739669 193.287076,267.965253 193.287076,268.105878 Z M213.185514,253.955488 C213.537078,253.73283 213.909145,253.448653 214.301725,253.102949 C214.694305,252.757244 215.086879,252.36467 215.479459,251.925214 C215.872039,251.485759 216.249965,251.011154 216.613248,250.501386 C216.976531,249.991618 217.295864,249.475998 217.571256,248.954511 C217.846648,248.433024 218.066372,247.911545 218.230436,247.390058 C218.394499,246.868571 218.47653,246.367599 218.47653,245.887128 C218.47653,245.523845 218.447233,245.230879 218.388639,245.008222 C218.330045,244.785565 218.250944,244.612715 218.151334,244.489667 C218.051724,244.36662 217.937468,244.28166 217.808561,244.234785 C217.679654,244.187909 217.54489,244.164472 217.404264,244.164472 C216.841761,244.164472 216.203096,244.401774 215.488248,244.876386 C214.773401,245.350998 214.020479,245.995523 213.229459,246.80998 C212.43844,247.624437 211.629854,248.576576 210.803678,249.666425 C209.977502,250.756274 209.177705,251.925208 208.404264,253.173261 C207.630823,254.421314 206.901338,255.707434 206.215787,257.03166 C205.530237,258.355885 204.932587,259.662512 204.422819,260.951581 C203.91305,262.24065 203.508758,263.474036 203.209928,264.651777 C202.911098,265.829517 202.761686,266.887124 202.761686,267.824628 C202.761686,268.176193 202.788053,268.466229 202.840787,268.694745 C202.893522,268.923262 202.969693,269.104901 203.069303,269.239667 C203.168913,269.374434 203.294888,269.465253 203.447233,269.512128 C203.599577,269.559004 203.775357,269.582441 203.974576,269.582441 C204.314422,269.582441 204.715785,269.438888 205.178678,269.151777 C205.641571,268.864666 206.133753,268.492599 206.65524,268.035566 C207.176727,267.578532 207.704066,267.068772 208.237272,266.506269 C208.770477,265.943766 209.271449,265.390061 209.740201,264.845136 C210.208954,264.300212 210.630825,263.79631 211.005826,263.333417 C211.380828,262.870524 211.667935,262.504317 211.867155,262.234785 C211.867155,262.246503 212.010708,262.369549 212.297819,262.603925 C212.584929,262.838301 212.92184,263.119549 213.308561,263.447675 C213.695281,263.775802 214.081996,264.106853 214.468717,264.440839 C214.855438,264.774825 215.148404,265.047284 215.347623,265.258222 C215.066372,265.57463 214.708954,265.978923 214.275358,266.471113 C213.841762,266.963303 213.352509,267.481852 212.807584,268.026777 C212.26266,268.571701 211.679658,269.119547 211.058561,269.670331 C210.437464,270.221115 209.798798,270.716228 209.142545,271.155683 C208.486292,271.595138 207.824189,271.952557 207.156217,272.227949 C206.488245,272.503341 205.837861,272.641035 205.205045,272.641035 C204.748012,272.641035 204.261688,272.503341 203.746061,272.227949 C203.230433,271.952557 202.720673,271.595138 202.216764,271.155683 C201.712855,270.716228 201.24411,270.229904 200.810514,269.696699 C200.376918,269.163493 200.01364,268.633225 199.72067,268.105878 C199.369106,267.449625 199.16403,266.846115 199.105436,266.295331 C199.046842,265.744547 199.017545,265.305099 199.017545,264.976972 C199.017545,264.074624 199.14645,263.055103 199.404264,261.918378 C199.662078,260.781654 200.031215,259.595142 200.511686,258.358808 C200.992157,257.122474 201.572229,255.86565 202.25192,254.5883 C202.931611,253.31095 203.684533,252.074634 204.510709,250.879316 C205.336885,249.683997 206.233361,248.559009 207.200162,247.504316 C208.166964,246.449623 209.180626,245.52971 210.241178,244.74455 C211.30173,243.95939 212.397422,243.341232 213.528287,242.890058 C214.659152,242.438884 215.804649,242.2133 216.964811,242.2133 C217.292937,242.2133 217.638637,242.29826 218.00192,242.468183 C218.365203,242.638106 218.722621,242.86076 219.074186,243.136152 C219.42575,243.411544 219.76559,243.730876 220.093717,244.09416 C220.421844,244.457443 220.70895,244.829509 220.955045,245.21037 C221.20114,245.591232 221.397427,245.972087 221.543912,246.352949 C221.690397,246.73381 221.763639,247.082439 221.763639,247.398847 C221.763639,248.101976 221.623015,248.878335 221.341764,249.727949 C221.060512,250.577562 220.679657,251.433022 220.199186,252.294355 C219.718715,253.155687 219.147431,253.996499 218.485319,254.816816 C217.823206,255.637132 217.117158,256.369547 216.367155,257.014081 L213.185514,253.955488 Z M228.056608,268.176191 C228.23239,268.176191 228.466762,268.10002 228.759733,267.947675 C229.052703,267.795331 229.377895,267.601973 229.735319,267.367597 C230.092742,267.133221 230.45895,266.872481 230.833951,266.58537 C231.208953,266.29826 231.569301,266.017012 231.915006,265.74162 C232.260711,265.466228 232.568325,265.214278 232.837858,264.985761 C233.10739,264.757244 233.312466,264.584395 233.453092,264.467206 C233.558561,264.572676 233.684537,264.70744 233.831022,264.871503 C233.977507,265.035567 234.115201,265.187909 234.244108,265.328535 C233.986294,265.586348 233.664031,265.893962 233.277311,266.251386 C232.89059,266.60881 232.474579,266.975017 232.029264,267.350019 C231.583949,267.725021 231.121063,268.094158 230.640592,268.457441 C230.160121,268.820724 229.691376,269.148846 229.234342,269.441816 C228.777308,269.734786 228.349578,269.969159 227.951139,270.144941 C227.552699,270.320723 227.218718,270.408613 226.949186,270.408613 C226.726528,270.408613 226.465789,270.352949 226.166959,270.24162 C225.86813,270.130292 225.581023,269.989668 225.305631,269.819745 C225.030239,269.649823 224.795866,269.462325 224.602506,269.257245 C224.409146,269.052166 224.312467,268.85002 224.312467,268.6508 C224.324186,268.146891 224.417935,267.56096 224.593717,266.892988 C224.769499,266.225016 224.977505,265.539476 225.21774,264.836347 C225.457976,264.133219 225.715786,263.43889 225.991178,262.753339 C226.26657,262.067789 226.52145,261.45549 226.755826,260.916425 C226.662076,260.939863 226.480437,261.068768 226.210905,261.303144 C225.941372,261.53752 225.61618,261.856853 225.235319,262.261152 C224.854457,262.665451 224.438446,263.151774 223.987272,263.720136 C223.536098,264.288498 223.09079,264.924234 222.651334,265.627363 C222.211879,266.330491 221.792938,267.089273 221.394498,267.90373 C220.996059,268.718187 220.662078,269.576577 220.392545,270.478925 C220.357389,270.607832 220.307585,270.701581 220.243131,270.760175 C220.178678,270.818769 220.07028,270.848066 219.917936,270.848066 C219.812466,270.848066 219.648406,270.795332 219.425748,270.689863 C219.203091,270.584393 218.968718,270.458418 218.722623,270.311933 C218.476528,270.165448 218.236296,270.010176 218.00192,269.846113 C217.767544,269.682049 217.580046,269.535566 217.43942,269.40666 C217.369107,269.324628 217.310514,269.248457 217.263639,269.178144 C217.216764,269.107831 217.193326,269.002363 217.193326,268.861738 C217.193326,268.088296 217.322231,267.139087 217.580045,266.014081 C217.837859,264.889076 218.192348,263.667408 218.643522,262.349042 C219.094696,261.030676 219.622034,259.653737 220.225553,258.218183 C220.829072,256.782629 221.473596,255.373463 222.159147,253.990644 C222.844697,252.607825 223.559534,251.292408 224.303678,250.044355 C225.047822,248.796302 225.780237,247.69475 226.500944,246.739667 C227.22165,245.784584 227.91305,245.017014 228.575162,244.436933 C229.237275,243.856852 229.843714,243.549238 230.394498,243.514081 C230.664031,243.596113 230.936489,243.725018 231.211881,243.9008 C231.487273,244.076582 231.748013,244.26994 231.994108,244.480878 C232.240203,244.691817 232.459927,244.896893 232.653287,245.096113 C232.846648,245.295332 232.99606,245.465253 233.10153,245.605878 C233.171842,245.699629 233.218717,245.810956 233.242155,245.939863 C233.265592,246.06877 233.277311,246.162519 233.277311,246.221113 C233.277311,246.64299 233.160124,247.164469 232.925748,247.785566 C232.691372,248.406663 232.36325,249.103921 231.941373,249.877363 C231.519496,250.650804 231.006806,251.479897 230.403287,252.364667 C229.799769,253.249437 229.131807,254.157631 228.399381,255.089277 C227.666956,256.020922 226.875948,256.961342 226.026334,257.910566 C225.176721,258.859789 224.289034,259.779702 223.363248,260.670331 C223.128872,261.303147 222.917937,261.918375 222.730436,262.516035 C223.363251,261.859781 223.943324,261.309006 224.47067,260.863691 C224.998017,260.418376 225.466762,260.063887 225.87692,259.800214 C226.287078,259.536541 226.635708,259.349043 226.922819,259.237714 C227.209929,259.126386 227.429654,259.070722 227.581998,259.070722 C227.687468,259.070722 227.874966,259.138104 228.144498,259.27287 C228.414031,259.407637 228.695278,259.568768 228.988248,259.756269 C229.281218,259.94377 229.550747,260.137127 229.796842,260.336347 C230.042937,260.535567 230.195279,260.699628 230.253873,260.828535 C230.277311,260.887129 230.277311,260.966229 230.253873,261.065839 C230.230436,261.165449 230.206998,261.24455 230.183561,261.303144 C230.078091,261.619552 229.952116,261.985759 229.805631,262.401777 C229.659146,262.817794 229.500944,263.257243 229.331022,263.720136 C229.161099,264.183029 228.994108,264.648845 228.830045,265.117597 C228.665982,265.586349 228.519499,266.017009 228.390592,266.409589 C228.261685,266.802169 228.156217,267.147869 228.074186,267.446699 C227.992154,267.745528 227.951139,267.953534 227.951139,268.070722 C227.951139,268.141035 227.986295,268.176191 228.056608,268.176191 Z M226.509733,253.059003 C226.228481,253.656663 225.956023,254.251383 225.69235,254.843183 C225.428677,255.434983 225.173796,256.029703 224.927701,256.627363 C225.712862,255.619545 226.474573,254.597094 227.212858,253.55998 C227.951143,252.522865 228.610316,251.526782 229.190397,250.571699 C229.770478,249.616616 230.236293,248.734789 230.587858,247.926191 C230.939422,247.117593 231.115201,246.437912 231.115201,245.887128 C231.115201,245.629315 231.068327,245.50041 230.974576,245.50041 C230.833951,245.50041 230.620086,245.690837 230.332975,246.071699 C230.045864,246.45256 229.703094,246.976969 229.304655,247.644941 C228.906215,248.312913 228.469696,249.10978 227.995084,250.035566 C227.520472,250.961352 227.02536,251.969154 226.509733,253.059003 Z M245.581998,265.328535 C244.503868,266.383227 243.487276,267.267984 242.532194,267.982831 C241.577111,268.697679 240.665987,269.271892 239.798795,269.705488 C238.931603,270.139084 238.10251,270.449627 237.31149,270.637128 C236.520471,270.824629 235.749971,270.918378 234.999967,270.918378 C234.683559,270.918378 234.332,270.801192 233.94528,270.566816 C233.558559,270.33244 233.198211,270.048263 232.864225,269.714277 C232.530239,269.380291 232.251921,269.031661 232.029264,268.668378 C231.806607,268.305095 231.69528,267.994551 231.69528,267.736738 C231.69528,266.775795 231.827114,265.893968 232.090787,265.09123 C232.354461,264.288491 232.70309,263.564866 233.136686,262.920331 C233.570282,262.275797 234.065394,261.707443 234.622037,261.215253 C235.178681,260.723063 235.758753,260.312911 236.362272,259.984785 C236.96579,259.656658 237.56637,259.410567 238.16403,259.246503 C238.761689,259.08244 239.312464,259.00041 239.816373,259.00041 C240.179656,259.00041 240.540004,259.105877 240.897428,259.316816 C241.254852,259.527754 241.580044,259.785564 241.873014,260.090253 C242.165984,260.394942 242.403286,260.714275 242.584928,261.048261 C242.766569,261.382247 242.857389,261.672283 242.857389,261.918378 C242.857389,262.316818 242.690398,262.72404 242.356412,263.140058 C242.022426,263.556076 241.550751,263.980876 240.941373,264.414472 C240.331995,264.848068 239.599581,265.290446 238.744108,265.74162 C237.888635,266.192795 236.945285,266.646892 235.91403,267.103925 C235.878873,267.385177 235.861295,267.660564 235.861295,267.930097 C235.861295,268.29338 235.940396,268.539471 236.0986,268.668378 C236.256804,268.797285 236.552699,268.861738 236.986295,268.861738 C237.759736,268.861738 238.489221,268.732833 239.174772,268.475019 C239.860322,268.217205 240.519495,267.883224 241.152311,267.473066 C241.785126,267.062908 242.394495,266.594162 242.980436,266.066816 C243.566376,265.539469 244.146449,265.006272 244.72067,264.467206 L245.581998,265.328535 Z M239.394498,260.934003 C239.160122,260.934003 238.902312,261.059979 238.621061,261.311933 C238.339809,261.563887 238.058562,261.894939 237.777311,262.305097 C237.496059,262.715255 237.226531,263.18693 236.968717,263.720136 C236.710903,264.253342 236.488249,264.807047 236.300748,265.381269 C236.734344,265.100018 237.159145,264.801192 237.575162,264.484785 C237.99118,264.168377 238.363247,263.837325 238.691373,263.49162 C239.0195,263.145916 239.283169,262.791427 239.482389,262.428144 C239.681609,262.064861 239.781217,261.701583 239.781217,261.3383 C239.781217,261.232831 239.748991,261.139082 239.684537,261.05705 C239.620084,260.975019 239.523405,260.934003 239.394498,260.934003 Z M256.603483,265.152753 C255.736291,266.031664 254.872042,266.816812 254.010709,267.508222 C253.149377,268.199632 252.276339,268.81193 251.391569,269.345136 C250.506799,269.878342 249.607393,270.338298 248.693326,270.725019 C247.779259,271.11174 246.841769,271.439861 245.880826,271.709394 C245.412074,273.092213 244.925751,274.562902 244.421842,276.121503 C243.917933,277.680105 243.390595,279.35001 242.839811,281.131269 L238.234342,282.642988 C238.808564,280.85001 239.371058,279.115652 239.921842,277.439863 C240.472626,275.764073 241.029261,274.135183 241.591764,272.553144 C241.216762,272.611738 240.838836,272.658613 240.457975,272.693769 C240.077114,272.728925 239.687469,272.758222 239.28903,272.78166 L239.025358,270.988691 C239.623017,270.930097 240.188441,270.868574 240.721647,270.80412 C241.254852,270.739667 241.767543,270.678144 242.259733,270.61955 C243.630833,266.764062 244.987265,263.274839 246.329069,260.151777 C247.670872,257.028714 249.027304,254.32464 250.398405,252.039472 C251.769505,249.754304 253.169882,247.914479 254.599576,246.519941 C256.029271,245.125403 257.523397,244.234786 259.081998,243.848066 C259.292937,243.894941 259.515591,243.979901 259.749967,244.102949 C259.984343,244.225996 260.212857,244.369549 260.435514,244.533613 C260.658171,244.697676 260.869107,244.870526 261.068326,245.052167 C261.267546,245.233809 261.431607,245.406659 261.560514,245.570722 C261.619108,245.629316 261.660123,245.690839 261.683561,245.755292 C261.706998,245.819746 261.718717,245.928143 261.718717,246.080488 C261.718717,246.807054 261.563445,247.606851 261.252897,248.479902 C260.942348,249.352953 260.508759,250.267006 259.952115,251.222089 C259.395472,252.177172 258.733369,253.158608 257.965787,254.166425 C257.198205,255.174243 256.351534,256.173256 255.425748,257.163495 C254.499962,258.153735 253.515597,259.120522 252.472623,260.063886 C251.429649,261.00725 250.357394,261.894937 249.255826,262.726972 C248.857387,263.699633 248.432586,264.771888 247.981412,265.943769 C247.530238,267.11565 247.052704,268.404699 246.548795,269.810956 C247.380831,269.588299 248.168909,269.3217 248.913053,269.011152 C249.657197,268.700603 250.392541,268.325607 251.119108,267.886152 C251.845674,267.446696 252.586877,266.931077 253.34274,266.339277 C254.098604,265.747477 254.910119,265.053148 255.777311,264.256269 L256.603483,265.152753 Z M252.630826,255.326581 C252.501919,255.560958 252.343718,255.859783 252.156217,256.223066 C251.992154,256.527755 251.798796,256.91447 251.576139,257.383222 C251.353482,257.851974 251.101531,258.408609 250.82028,259.053144 C251.640596,258.291421 252.428674,257.491625 253.184537,256.65373 C253.9404,255.815835 254.646448,254.969164 255.302701,254.113691 C255.958955,253.258218 256.556605,252.417406 257.09567,251.59123 C257.634735,250.765054 258.097621,249.988694 258.484342,249.262128 C258.871063,248.535562 259.169888,247.879319 259.380826,247.293378 C259.591765,246.707438 259.697233,246.226974 259.697233,245.851972 C259.697233,245.687909 259.638639,245.605878 259.521451,245.605878 C259.298794,245.605878 259.005828,245.781658 258.642545,246.133222 C258.279262,246.484786 257.819306,247.047281 257.262662,247.820722 C256.706019,248.594163 256.046846,249.596107 255.285123,250.826581 C254.523401,252.057056 253.638644,253.557041 252.630826,255.326581 Z" transform="rotate(-16 212.42 262.428)"/>
  </g>
</svg>
