<svg xmlns="http://www.w3.org/2000/svg" width="32" height="32" viewBox="0 0 32 32">
  <path fill="#53777A" d="M4,28 L32,28 L32,32 L0,32 L0,0 L4,0 L4,28 Z M9,26 C7.343,26 6,24.657 6,23 C6,21.343 7.343,20 9,20 C9.088,20 9.176,20.005 9.262,20.012 L12.487,14.637 C12.18,14.166 12,13.604 12,12.999 C12,11.342 13.343,9.999 15,9.999 C16.657,9.999 18,11.342 18,12.999 C18,13.603 17.821,14.166 17.513,14.637 L20.738,20.012 C20.824,20.005 20.912,20 21,20 C21.067,20 21.133,20.003 21.198,20.007 L26.522,10.691 C26.193,10.209 26,9.627 26,9 C26,7.343 27.343,6 29,6 C30.657,6 32,7.343 32,9 C32,10.657 30.657,12 29,12 C28.933,12 28.867,11.997 28.802,11.993 L23.478,21.309 C23.807,21.79 24,22.373 24,23 C24,24.657 22.657,26 21,26 C19.343,26 18,24.657 18,23 C18,22.396 18.179,21.833 18.487,21.362 L15.262,15.987 C15.176,15.994 15.088,15.999 15,15.999 C14.912,15.999 14.824,15.994 14.738,15.987 L11.513,21.362 C11.82,21.833 12,22.395 12,22.999 C12,24.656 10.657,25.999 9,25.999 L9,26 Z"/>
</svg>
